<svg width="102" height="163" viewBox="0 0 102 163" fill="none" xmlns="http://www.w3.org/2000/svg">
<path d="M35.2189 105.104C32.2858 96.7638 29.3913 88.4238 26.4582 80.0838C25.9564 77.574 25.146 73.7902 23.9496 69.234C20.5533 56.3765 18.3149 53.9827 17.6974 46.7238C17.35 42.7854 16.8097 36.2601 20.206 29.619C24.7214 20.7385 33.5208 17.109 35.7592 16.2596C47.6075 11.5877 54.0913 17.2635 66.4798 12.1282C71.1883 10.159 74.5459 7.5721 76.4756 5.87321C76.7072 7.34043 76.9002 9.54126 76.4756 12.1282C76.0125 15.024 75.1635 16.3368 75.6266 16.7229C76.4757 17.3407 80.7982 14.7152 82.7278 10.4679C85.1207 5.21682 82.3805 0.544872 83.5769 0.042928C85.1978 -0.652072 92.878 7.18599 93.1482 16.7229C93.2639 20.6999 92.0675 24.1749 93.1482 24.6382C94.1902 25.1015 96.39 22.4374 98.1653 20.0435C99.7863 23.5957 100.404 26.7232 100.674 28.8082C101.098 32.1674 100.828 34.986 100.674 36.2988C100.404 39.1174 100.018 39.5421 99.8248 41.7043C99.5161 45.5268 100.365 48.3068 100.674 49.6196C101.407 52.8629 101.33 58.0368 97.5864 66.6085C97.625 58.4229 97.7022 50.2374 97.7408 42.0518C96.0041 41.6657 93.3797 41.2796 90.2536 41.5113C86.4328 41.7816 82.8436 42.8627 76.7458 46.1446C64.3572 52.7471 61.6943 57.4576 53.9755 57.9982C51.3511 58.1913 49.2284 57.8052 47.9549 57.5349C48.6495 60.1218 49.2285 63.674 48.6881 67.8054C48.3022 70.8171 47.9163 73.8288 45.8322 76.6088C43.4394 79.7749 41.1624 79.5818 39.5414 82.4391C38.0749 85.026 38.345 87.999 38.8082 90.0454C38.5766 89.6207 36.8013 86.1843 33.2893 85.6824C32.2472 85.5279 31.321 85.6824 30.6649 85.9141" fill="black"/>
<path d="M0.0214499 153.831C-0.557456 144.255 10.7119 141.437 18.0447 138.618C27.0371 135.22 27.0371 133.56 31.5525 126.224C34.9488 120.587 34.9488 118.347 43.3622 120.046C45.0604 120.625 50.695 122.286 51.8142 123.985C54.0527 126.803 51.8142 130.162 52.9335 132.44C56.87 137.498 64.7432 135.259 70.3779 135.838C79.9491 136.417 105.845 147.653 86.1241 153.87C73.7355 157.267 54.593 153.87 41.6641 153.87C28.6966 153.87 12.9504 153.29 1.14068 152.171" fill="#C4A0D8"/>
<path d="M96.39 66.6471C96.4672 75.9524 99.7863 85.1418 97.8952 94.4857C96.6216 100.586 92.1447 107.343 86.3556 110.162C82.805 111.899 78.6369 112.478 74.7389 112.98C72.076 113.328 69.5674 113.328 66.9044 113.173C64.7432 113.058 62.5819 113.212 60.6136 114.1C56.7928 115.76 54.4 119.428 52.5475 123.019C51.6599 124.718 51.0809 126.417 50.6564 128.27C50.4248 129.236 49.9617 130.78 50.4634 131.745C50.8108 132.402 51.8143 131.823 51.4669 131.166C50.888 130.085 52.0844 127.267 52.3931 126.185C53.0492 124.1 54.2842 122.054 55.4806 120.239C56.7156 118.347 58.2594 116.687 60.2277 115.529C62.6591 114.139 65.515 114.255 68.178 114.409C72.6163 114.679 77.1317 113.984 81.4542 112.98C84.233 112.324 86.9732 111.359 89.3274 109.737C94.4604 106.146 98.0882 99.6596 99.1688 93.6363C100.79 84.6399 97.5478 75.6821 97.4707 66.6857C97.5478 65.9135 96.39 65.9135 96.39 66.6471Z" fill="black"/>
<path d="M31.7069 69.6202C30.6263 75.2574 32.0156 80.8947 32.0928 86.5319C32.3244 86.3388 32.5946 86.1458 32.8261 85.9913C29.6228 85.4508 26.6897 87.0724 26.6125 90.6633C26.5739 91.783 27.5388 92.478 28.3878 92.9799C30.1246 94.0224 31.2052 95.451 32.4016 97.0727C35.4505 101.204 35.6049 106.301 35.2189 111.282C34.7944 116.996 33.2121 122.595 32.9033 128.309C32.8647 129.043 34.0225 129.043 34.0611 128.309C34.6014 119.351 38.1135 110.2 35.7978 101.243C35.026 98.2696 32.9033 95.5669 30.8964 93.2888C30.1246 92.4394 28.9282 92.0919 28.0791 91.3197C27.23 90.5474 28.2721 88.6169 28.7738 87.9991C29.6228 86.918 31.2824 86.918 32.5174 87.1496C32.8647 87.2269 33.2506 86.9952 33.2506 86.6091C33.1734 81.0491 31.7841 75.5277 32.8261 70.0063C32.9805 69.1955 31.8613 68.8866 31.7069 69.6202Z" fill="black"/>
<path d="M85.8925 79.9293C85.7768 81.7441 86.0469 83.5201 86.1627 85.2963C86.2013 86.1457 86.2013 87.0338 85.8154 87.7674C85.2751 88.9257 83.6155 88.8099 82.5735 88.694C81.8402 88.6168 81.8402 89.7751 82.5735 89.8523C84.6575 90.0454 86.5872 89.6207 87.1662 87.4199C87.8223 85.026 86.896 82.3618 87.0504 79.9293C87.0889 79.1571 85.9311 79.1571 85.8925 79.9293Z" fill="black"/>
<path d="M74.353 95.9144C71.6129 95.5282 66.943 93.5591 63.431 94.3699C52.8949 97.1113 58.3752 106.069 65.7852 108.038C70.841 109.583 83.7313 109.197 87.6293 104.525C93.457 97.0727 81.763 95.5282 74.353 95.9144Z" fill="black"/>
<path d="M63.238 78.3463C63.7398 74.1763 69.5287 74.7941 70.3006 78.5008C70.455 79.2344 71.5742 78.9255 71.4198 78.1919C70.3778 73.0952 62.7363 72.9794 62.0802 78.3463C62.003 79.0799 63.1608 79.0799 63.238 78.3463Z" fill="black"/>
<path d="M91.2957 76.9562C91.5658 76.2613 91.9903 75.5276 92.7236 75.296C93.6113 75.0257 94.2288 76.0296 94.4989 76.686C94.8077 77.381 95.8111 76.7632 95.5024 76.1068C95.0007 74.9871 94.0358 73.9446 92.7236 74.099C91.4114 74.2535 90.601 75.4504 90.1764 76.6087C89.9449 77.3423 91.0641 77.6512 91.2957 76.9562Z" fill="black"/>
<path d="M30.7035 89.0802C31.2438 89.0802 31.8613 88.9257 32.4016 89.003C33.1349 89.1574 33.2121 90.4315 33.2893 90.9721C33.4822 90.7404 33.6752 90.4701 33.8296 90.2385C33.598 90.1999 33.2507 89.8138 33.0577 89.6207C33.0963 89.7752 33.1735 89.891 33.2121 90.0454C33.2507 89.8138 33.6366 89.4663 33.8296 89.2732C34.3699 88.7327 33.5208 87.9219 33.0191 88.4624C32.6332 88.8485 31.9385 89.5821 32.0928 90.1999C32.2472 90.8176 33.2892 91.3196 33.8296 91.3968C34.2541 91.4354 34.4471 90.9721 34.3699 90.6632C34.2541 89.6979 34.0225 88.4624 33.0577 87.9991C32.3244 87.6516 31.4753 87.8832 30.7035 87.8832C29.9702 87.9219 29.9702 89.0802 30.7035 89.0802Z" fill="black"/>
<path d="M11.4452 144.68C16.0764 149.893 19.3183 155.955 22.5988 162.017C22.9462 162.673 23.9496 162.094 23.6022 161.437C20.2446 155.26 16.9255 149.159 12.2557 143.869C11.754 143.29 10.9435 144.101 11.4452 144.68Z" fill="black"/>
<path d="M27.7703 133.946C34.2927 141.939 49.5372 147.46 55.1333 135.529C55.4421 134.873 54.4386 134.255 54.1298 134.95C48.8425 146.225 34.64 140.549 28.5808 133.135C28.1177 132.556 27.3072 133.406 27.7703 133.946Z" fill="black"/>
<path d="M37.7275 121.745C37.6503 124.487 36.6855 127.267 35.9908 129.892C35.4119 132.17 34.5629 134.757 34.9102 137.112C35.026 137.846 36.1452 137.537 36.0294 136.804C35.6435 134.41 36.7627 131.552 37.3416 129.236C37.9591 126.803 38.8081 124.294 38.8467 121.745C38.9239 120.973 37.7661 120.973 37.7275 121.745Z" fill="black"/>
<path d="M42.8219 122.286C43.3236 127.768 38.8854 132.595 39.4257 138.039C39.5029 138.773 40.6607 138.773 40.5835 138.039C40.0046 132.634 44.4428 127.768 43.9797 122.286C43.9025 121.552 42.7447 121.552 42.8219 122.286Z" fill="black"/>
<path d="M48.4566 124.95C46.6813 129.583 45.6778 134.796 45.6392 139.738C45.6392 140.472 46.797 140.472 46.797 139.738C46.8356 134.873 47.8391 129.776 49.5758 125.259C49.846 124.564 48.7268 124.255 48.4566 124.95Z" fill="black"/>
<path d="M76.6686 139.468C80.0649 145.259 81.4543 152.364 85.7768 157.615C86.2399 158.194 87.0504 157.383 86.5873 156.804C82.3805 151.669 80.9911 144.564 77.672 138.889C77.2861 138.271 76.2827 138.85 76.6686 139.468Z" fill="black"/>
<path d="M62.3889 95.7985C67.5219 97.1112 70.3779 102.671 72.1146 107.227C72.3848 107.922 73.504 107.613 73.2338 106.918C71.3427 101.976 68.2552 96.1073 62.6977 94.6787C61.9644 94.5243 61.6556 95.644 62.3889 95.7985Z" fill="#FFFEFD"/>
<path d="M23.911 103.752C23.4479 107.845 22.1357 112.208 20.1288 115.799C19.7815 116.455 20.7849 117.035 21.1323 116.378C23.2549 112.556 24.5671 108.038 25.0688 103.714C25.146 103.019 23.9882 103.019 23.911 103.752Z" fill="black"/>
<path d="M28.9281 106.841C28.8123 109.621 27.5002 112.594 26.6511 115.181C26.4195 115.876 27.5388 116.185 27.7703 115.49C28.658 112.787 29.9701 109.737 30.1245 106.841C30.1245 106.108 28.9667 106.108 28.9281 106.841Z" fill="black"/>
<path d="M31.4368 32.2832C41.1238 26.8776 49.8074 26.0282 60.7294 27.9974C66.5571 28.8082 72.5005 30.8932 71.6128 37.9976C70.8796 44.3299 64.9361 50.5463 59.533 53.056C52.6247 55.7588 44.4429 54.7549 37.5346 55.3727C35.9908 55.5657 34.1769 55.5271 32.9805 56.2221C31.321 57.4577 31.7841 61.0485 30.086 62.0524C25.8021 64.9482 26.9599 58.0368 27.9633 55.5657C25.3004 55.141 21.5954 56.3766 22.0971 52.4382C28.7352 51.5888 25.5319 48.886 25.1074 43.4804C24.9144 39.8896 25.6477 35.6424 29.0053 33.6346L31.4368 32.2832Z" fill="#EEDA23"/>
<path d="M69.2587 29.426C65.9782 29.3488 63.9327 32.5921 60.8066 33.2485C58.3366 33.7504 58.7997 30.7002 60.2277 32.0515C60.768 32.5535 61.5784 31.7426 61.0381 31.2407C59.3014 29.5804 56.9472 31.1635 58.0664 33.3643C58.6839 34.5999 60.3048 34.5227 61.4627 34.291C64.3186 33.7118 66.2869 30.5071 69.2587 30.5843C69.9919 30.5843 69.9919 29.426 69.2587 29.426Z" fill="#FFFEFD"/>
<path d="M59.7646 34.291C58.1051 34.3682 57.1402 35.5651 56.8314 37.1482C56.5999 38.5382 56.7929 40.7004 57.8349 41.743C59.0699 43.0171 60.5751 42.3607 61.7329 41.3182C62.196 40.8935 62.196 40.0827 62.1188 39.5035C62.003 38.3065 61.6171 37.2254 62.6205 36.2601C63.1608 35.7582 62.3503 34.9473 61.81 35.4493C61.1153 36.1057 60.8066 36.8393 60.768 37.8046C60.768 38.2293 60.8452 38.6927 60.9224 39.1174C61.0768 40.0827 61.0382 40.546 60.0733 41.1252C58.491 42.0905 58.0278 39.5421 57.9892 38.5382C57.9507 37.2254 58.1051 35.5265 59.8032 35.4493C60.4979 35.4107 60.4979 34.2523 59.7646 34.291Z" fill="#FFFEFD"/>
<path d="M58.5681 42.3221C57.5647 43.4805 54.3614 45.4883 53.0493 43.6349C52.5861 42.9399 52.7019 41.3955 52.4318 40.5846C51.7371 38.6541 50.0004 36.7235 47.8005 37.1869C46.6427 37.4185 44.7902 39.3877 46.0638 40.5074C47.2602 41.5499 49.3057 41.743 50.6951 40.9707C51.3511 40.6232 50.7722 39.6194 50.1162 39.9669C49.3829 40.3916 48.4566 40.3144 47.6847 40.1213C46.5269 39.851 47.183 38.9244 47.8005 38.461C48.804 37.7274 49.7302 38.6541 50.3477 39.2718C51.6213 40.6232 51.5055 42.2449 51.9686 43.8666C52.2388 44.9091 53.3966 45.2566 54.3615 45.3724C56.3683 45.6041 58.1822 44.6774 59.4558 43.1716C59.8803 42.5924 59.0698 41.7816 58.5681 42.3221Z" fill="#FFFEFD"/>
<path d="M46.99 40.9707C45.6779 42.438 45.8322 44.3685 45.8322 46.2219C45.8322 47.8821 45.6779 50.971 43.671 51.5502C42.436 51.9363 40.2747 47.4188 44.2113 49.7741C44.8674 50.1602 45.4463 49.1563 44.7902 48.7702C43.7482 48.1524 41.7799 47.1872 40.9694 48.6544C40.3519 49.7741 41.1238 51.2799 41.9343 52.0908C43.1693 53.2491 44.6744 52.6313 45.6007 51.473C46.4883 50.3533 46.7971 49.0405 46.9515 47.6505C47.1058 45.7971 46.4498 43.326 47.8006 41.7816C48.3023 41.241 47.4532 40.4302 46.99 40.9707Z" fill="#FFFEFD"/>
<path d="M46.6041 37.5729C44.2499 36.7621 41.4711 37.8818 39.5029 39.156C38.4608 39.8124 36.4154 41.4341 37.0329 42.9399C37.496 44.0596 38.9625 44.0596 39.966 43.828C41.2782 43.5191 42.243 42.438 42.243 41.0866C42.243 40.3529 41.0852 40.3529 41.0852 41.0866C41.0852 42.7855 37.9205 43.133 38.1521 42.2063C38.4222 41.0093 40.1975 40.0441 41.1624 39.5035C42.6675 38.6927 44.6744 38.0749 46.334 38.6541C46.9901 38.9243 47.2988 37.8432 46.6041 37.5729Z" fill="#FFFEFD"/>
<path d="M41.1237 39.1174C39.9273 37.1482 37.4573 36.2602 35.2961 35.9127C33.6366 35.681 31.0508 35.8741 30.0473 37.4957C29.4298 38.461 29.6228 39.6579 30.6649 40.2371C31.977 40.9707 33.3278 39.8124 34.0225 38.7699C34.447 38.1521 33.4436 37.5729 33.0191 38.1907C32.6331 38.7699 31.7069 39.7352 30.9736 39.0402C30.2017 38.3066 31.7841 37.4571 32.2472 37.3027C34.6786 36.3374 38.7695 37.3799 40.1203 39.6966C40.5062 40.353 41.5097 39.7738 41.1237 39.1174Z" fill="#FFFEFD"/>
<path d="M37.1487 36.7621C39.5415 35.6423 42.0887 34.7543 43.478 32.3604C43.9798 31.511 44.6745 29.7735 43.2079 29.426C41.8185 29.1171 40.0432 30.2368 38.8468 30.7774C37.689 31.3179 35.7207 32.7852 34.3699 32.6307C34.5243 32.9396 34.7173 33.2099 34.8716 33.5188C35.3734 32.5535 35.9523 31.5882 36.5698 30.7002C36.9943 30.0824 35.9909 29.5032 35.5663 30.121C34.9102 31.0091 34.3699 31.9743 33.8682 32.9396C33.6367 33.3643 33.9454 33.7504 34.3699 33.8276C35.219 33.9049 36.2224 33.3257 36.9557 32.9782C38.3837 32.3218 39.773 31.5882 41.2396 31.009C41.7413 30.816 42.2817 30.6229 42.7834 30.5843C43.2079 30.5457 42.6676 31.3952 42.436 31.7813C41.2782 33.9821 38.6538 34.7929 36.5312 35.7582C35.8751 36.0671 36.4926 37.071 37.1487 36.7621Z" fill="#FFFEFD"/>
<path d="M41.0852 33.0941C42.7447 35.2563 45.3305 36.183 47.9549 35.4107C48.2636 35.3335 48.418 35.0246 48.3408 34.7157C48.1092 33.6346 47.4918 32.708 47.1058 31.6655C46.6813 30.5457 48.4952 30.7388 48.9969 30.9318C49.6916 31.2407 49.653 32.2446 49.653 32.8624C49.653 34.9474 49.4601 36.6463 50.9266 38.3838C52.5476 40.3144 54.2071 37.3413 54.6316 36.0671C55.3263 33.9821 53.9755 32.4377 52.3546 31.3566C51.3125 30.6616 50.3477 30.1596 49.846 28.9241C49.2285 27.4182 50.4249 26.1441 51.8915 27.3024C52.316 27.6499 52.4703 28.3835 52.5861 28.8468C53.0492 30.5071 53.2422 32.5921 55.0947 33.2485C56.87 33.8663 57.7191 32.2832 58.0665 30.8546C58.2594 29.9666 58.3752 28.3449 59.533 28.2291C61.4241 28.036 61.2697 31.7813 61.3855 32.9782C61.4627 33.7118 62.6205 33.7118 62.5433 32.9782C62.3118 30.7774 62.5047 27.2252 59.533 27.0707C57.3332 26.9549 57.1402 29.928 56.7157 31.3952C56.4841 32.206 55.6351 32.4377 54.9404 31.8585C54.4001 31.3952 54.2071 30.5071 54.0141 29.8507C53.7054 28.8082 53.551 27.6499 52.9335 26.7232C51.7757 25.0629 48.7268 25.1788 48.4952 27.4568C48.225 30.2368 50.3091 31.318 52.2774 32.6694C52.9335 33.1327 53.4738 33.7891 53.551 34.5999C53.6667 35.5266 52.4318 38.7313 51.3126 37.071C50.5021 35.8355 50.5793 34.5613 50.6951 33.1713C50.8494 30.9705 49.5372 28.8468 46.99 29.6191C44.3271 30.4299 46.7971 33.3644 47.1058 34.9474C47.2216 34.7158 47.376 34.4841 47.4918 34.2524C45.4077 34.8702 43.2465 34.2138 41.8957 32.4763C41.6641 31.9357 40.6607 32.4763 41.0852 33.0941Z" fill="#FFFEFD"/>
<path d="M71.6514 34.8702C69.8761 34.291 60.0733 33.0168 60.768 36.7621C61.2311 39.3104 63.9713 39.5035 66.0167 39.6579C67.8306 39.8124 69.5288 40.3529 68.5253 42.5152C67.9464 43.7893 65.6694 41.8588 65.0133 41.434C63.3538 40.3143 61.1539 39.5421 60.4592 42.0904C59.7646 44.5229 63.7011 46.5693 64.9747 48.0365C65.7852 48.9246 65.6694 50.1988 64.2029 50.1988C63.2766 50.1988 62.3504 49.8126 61.5013 49.5424C59.9961 49.079 58.6067 48.8088 57.0244 48.8088C55.9438 48.8088 54.593 48.8087 53.9755 49.8899C53.4352 50.8551 53.551 51.6274 54.4386 52.2837C54.9403 52.6699 55.635 52.8243 56.2525 53.056C56.9858 53.3262 57.3717 53.944 57.7577 54.4846C57.7577 54.3687 57.7577 54.2915 57.7577 54.1757C57.3717 54.3688 56.9858 54.5618 56.5613 54.7162C55.8666 55.0251 55.0561 54.9865 54.3228 54.9865C52.7019 54.9479 51.6599 54.0985 51.1968 52.6313C50.5021 50.5076 51.1968 47.5732 53.1264 46.299C56.0596 44.3299 56.6771 47.8049 57.8349 49.6582C58.2208 50.276 59.2243 49.6968 58.8383 49.079C58.0279 47.8049 57.6419 46.2604 56.6385 45.1793C55.635 44.0982 54.0527 44.6388 52.8949 45.1407C50.0775 46.3763 49.4215 50.3146 50.1162 52.9401C50.9652 56.2607 54.9404 56.7626 57.6805 55.5271C58.3752 55.2182 59.3786 54.8321 58.8769 53.9054C58.3752 52.9787 57.6033 52.3224 56.6385 51.9363C55.9824 51.666 54.2843 51.4343 55.2105 50.2374C55.5964 49.7354 57.3718 49.9671 57.9121 50.0057C59.6488 50.0443 61.2697 50.7393 62.9292 51.164C65.2063 51.7432 67.7921 50.469 66.3255 47.8435C65.6694 46.6851 64.3958 45.8357 63.431 44.9863C62.8521 44.4843 62.3118 43.9438 61.8872 43.326C61.3469 42.5151 61.8486 41.3182 62.8907 41.5885C64.5888 42.0518 66.7886 45.0635 68.7569 44.021C70.0691 43.326 70.648 40.8549 69.5673 39.7352C68.1008 38.2293 65.5536 38.6926 63.7011 38.3065C63.0836 38.1907 61.3469 36.8779 62.2732 36.1829C63.0836 35.5652 64.4344 35.5652 65.3993 35.4879C67.3675 35.3721 69.5674 35.4493 71.4584 36.0285C72.0759 36.2216 72.3847 35.1018 71.6514 34.8702Z" fill="#FFFEFD"/>
<path d="M50.6178 49.581C49.4214 48.7702 48.2636 48.3455 46.99 49.2335C46.0252 49.8899 45.2533 51.2413 45.1375 52.3996C45.0603 53.2491 45.7164 55.6044 44.6744 55.9905C42.6289 56.8013 42.5517 54.1757 42.3587 53.0174C42.243 52.3224 42.05 51.5116 41.3167 51.2413C40.5834 50.971 39.3098 51.1641 38.8467 51.8204C38.345 52.5154 38.0363 53.3649 37.6117 54.0985C37.303 54.6391 36.9942 55.1796 36.5697 55.6816C35.9136 56.4152 35.7978 55.3727 35.682 54.7935C34.833 51.4729 39.0783 50.3918 40.6992 48.2296C42.1272 46.3377 41.5869 43.8279 39.1555 43.2874C36.6469 42.7468 32.9805 44.1368 31.5525 46.2991C30.9736 47.1485 31.2823 48.191 32.0156 48.8088C33.1348 49.7741 34.9488 49.4652 36.2609 49.1949C36.0294 48.9632 35.7978 48.7316 35.5662 48.4999C34.447 51.666 29.0825 47.4574 28.272 51.3957C27.7703 53.7896 33.0962 53.2877 34.0997 54.4846C34.1383 54.1757 34.1769 53.8668 34.2155 53.5579C32.5173 54.446 30.6648 54.5618 28.8509 54.9866C28.1176 55.1796 28.4264 56.2993 29.1597 56.1063C31.0894 55.643 33.019 55.4885 34.7944 54.5618C35.1417 54.3688 35.1417 53.9054 34.9102 53.6352C34.2927 52.9016 33.212 52.7085 32.3244 52.5155C31.6297 52.361 27.8089 51.5116 30.3175 50.7007C31.5525 50.3146 33.0962 51.0868 34.4084 50.9324C35.6434 50.8166 36.2995 49.8899 36.6855 48.8088C36.8398 48.3841 36.3767 47.9979 35.9908 48.1138C35.0645 48.3068 34.1769 48.4227 33.2506 48.191C31.3209 47.7277 33.5208 45.9902 34.1769 45.5655C35.4891 44.7546 37.1872 44.3685 38.6924 44.4457C40.7764 44.5229 40.6992 46.6466 39.6572 47.8435C38.8853 48.7316 37.7661 49.388 36.8399 50.1216C35.1031 51.5116 34.2155 52.9402 34.64 55.1796C34.9102 56.6082 35.9136 57.921 37.303 56.7627C38.538 55.7202 39.0397 53.9441 39.8502 52.5927C40.1589 52.0521 41.0852 52.4382 41.2395 52.9402C41.3939 53.4035 41.3939 53.9441 41.4711 54.446C41.5869 55.2569 41.7798 55.9905 42.3202 56.6082C43.2464 57.6893 45.6778 57.6507 46.2181 56.2221C46.5655 55.3341 46.4497 54.3302 46.4111 53.4035C46.3725 52.7471 46.3725 52.2838 46.7199 51.666C47.5689 50.1216 48.5338 49.6582 50.1161 50.7393C50.6564 51.0096 51.2353 50.0057 50.6178 49.581Z" fill="#FFFEFD"/>
<path d="M29.2369 38.2293C27.6932 38.7699 26.188 39.5807 25.1846 40.8935C24.5671 41.7429 24.7987 43.2874 25.6863 43.8665C28.2335 45.5268 31.5911 42.7468 34.2541 42.8627C34.0611 42.6696 33.8682 42.4765 33.6752 42.2835C33.7524 43.9824 30.9351 45.0635 29.7001 45.6426C28.1949 46.3376 26.6512 46.9168 25.146 47.6118C24.4513 47.9207 25.0688 48.9246 25.7249 48.6157C27.7704 47.6504 29.893 46.9554 31.8613 45.8743C33.1735 45.1407 34.9102 44.021 34.8716 42.3221C34.8716 41.9746 34.6014 41.7429 34.2927 41.7429C32.4788 41.6271 30.5877 42.5924 28.8124 42.9785C27.8476 43.2101 26.1881 43.519 26.0337 42.1676C25.8793 40.7776 28.5808 39.7351 29.5843 39.349C30.2404 39.0788 29.9702 37.959 29.2369 38.2293Z" fill="#FFFEFD"/>
<path d="M19.5885 25.4877C22.0199 26.7232 24.104 28.4993 26.5354 29.7349C27.1914 30.0824 27.7703 29.0785 27.1143 28.731C24.6829 27.4954 22.5988 25.7193 20.1674 24.4838C19.5113 24.1363 18.9324 25.1402 19.5885 25.4877Z" fill="black"/>
<path d="M26.5353 21.6266C28.1949 22.9007 29.7 24.4838 31.5525 25.4876C32.2086 25.8351 32.7875 24.8312 32.1314 24.4837C30.2789 23.4799 28.7738 21.8968 27.1142 20.6227C26.4967 20.1593 25.9564 21.2018 26.5353 21.6266Z" fill="black"/>
<path d="M34.1383 15.3715C34.7558 16.1824 35.0259 17.6496 35.3733 18.6149C35.7978 19.8118 36.2224 21.0474 36.7627 22.2057C37.0715 22.8621 38.0749 22.2829 37.7661 21.6265C37.11 20.2751 36.6855 18.8079 36.1838 17.3793C35.875 16.4526 35.6049 15.3329 34.9874 14.5607C34.4856 13.9429 33.6752 14.7924 34.1383 15.3715Z" fill="black"/>
</svg>
