<svg width="257" height="315" viewBox="0 0 257 315" fill="none" xmlns="http://www.w3.org/2000/svg">
<path d="M74.531 255C61.2582 260.976 34.7125 266.952 22.6463 280.099C-7.51917 309.979 40.7456 313.564 62.4648 314.759C95.0435 315.955 125.209 312.369 156.581 311.174C174.68 309.979 239.838 317.15 215.705 288.465C207.259 277.709 183.127 263.366 169.854 259.781C160.201 283.685 149.341 288.465 122.796 286.075C101.077 283.685 80.5641 271.733 72.1177 257.39" fill="#44D38E"/>
<path d="M28.0987 149.801C27.1525 140.942 25.6902 127.784 23.7977 111.873C18.3786 65.6885 17.0883 62.5064 19.1527 55.196C28.5288 21.3102 77.6455 8.4095 86.9355 6.00137C103.021 1.78715 142.16 -8.53339 170.546 14.3438C201.427 39.1991 198.416 86.3296 197.47 100.692C196.696 113.249 194.115 123.484 192.051 130.45C191.448 120.129 190.244 104.993 187.234 86.7596C183.019 60.5283 186.889 66.0326 176.051 57.9481C172.868 55.54 163.578 46.9395 151.622 74.031C136.138 108.863 119.537 108.003 111.021 109.981C96.7417 113.335 78.8498 102.928 70.1619 90.4578C60.9578 77.2131 63.6244 63.8824 55.2806 60.7003C49.0012 58.2921 40.3993 62.5924 35.7543 68.0967C27.9266 77.3851 32.3136 89.0818 32.3136 110.841C32.5716 120.129 31.8835 133.46 28.0987 149.801Z" fill="#0C0B0B"/>
<path d="M122.547 224.281C145.256 224.281 174.761 221.787 186.89 199.426C192.825 188.503 193.341 175.516 193.341 163.39C193.341 148.941 189.728 132.772 194.201 118.753C194.717 117.119 192.223 116.517 191.707 118.065C187.922 130.02 190.158 143.437 190.674 155.649C191.105 168.55 191.191 182.139 186.46 194.351C176.825 219.121 145.342 221.701 122.633 221.615C120.913 221.701 120.913 224.281 122.547 224.281Z" fill="black"/>
<path d="M27.0664 128.816C28.5287 149.715 27.1524 173.28 37.4746 192.287C49.7753 214.82 79.4518 220.927 102.763 223.335C104.397 223.507 104.397 220.927 102.763 220.755C79.7099 218.347 51.3237 212.326 39.2811 190.223C34.636 181.623 32.9156 171.646 31.8834 162.014C30.6791 151.005 30.4211 139.824 29.6469 128.816C29.5609 127.182 26.9804 127.182 27.0664 128.816Z" fill="black"/>
<path d="M15.7119 153.929C13.0453 151.177 9.26047 148.769 5.47566 150.489C2.55103 151.779 0.744664 154.961 0.228553 158.057C-0.373576 161.24 0.142524 164.852 2.63706 167.174C5.99178 170.27 10.9809 169.238 14.7657 167.776C16.4861 167.088 18.1204 166.314 19.6687 165.368C21.131 164.508 19.8407 162.358 18.3784 163.132C15.0237 165.024 9.77662 167.862 5.73375 166.142C3.23922 165.024 2.46502 162.272 2.63706 159.777C2.8091 157.283 3.92734 154.531 6.0778 153.155C8.9164 151.349 12.0131 153.757 13.9915 155.821C15.1097 156.939 16.9161 155.133 15.7119 153.929Z" fill="black"/>
<path d="M200.137 148.511C202.631 146.447 206.33 144.125 209.685 145.845C212.093 147.049 213.211 149.887 213.555 152.381C213.899 154.359 213.641 157.369 211.921 158.745C209.254 160.81 205.298 157.799 203.233 156.165C201.943 155.133 200.137 156.939 201.427 157.971C204.437 160.466 208.996 163.476 212.953 161.154C215.792 159.433 216.48 155.477 216.136 152.467C215.792 149.027 214.071 145.415 210.975 143.695C206.588 141.286 201.771 144.039 198.33 146.791C196.954 147.737 198.846 149.543 200.137 148.511Z" fill="black"/>
<path d="M105.258 155.563C104.139 161.67 101.989 167.432 100.01 173.28C99.7523 174.14 100.441 174.828 101.215 174.914C103.365 175.086 105.344 175.774 107.494 175.946C109.128 176.118 109.128 173.538 107.494 173.366C105.344 173.108 103.365 172.42 101.215 172.334C101.645 172.85 102.075 173.452 102.419 173.968C104.397 168.12 106.548 162.358 107.666 156.251C108.01 154.617 105.516 153.929 105.258 155.563Z" fill="black"/>
<path d="M123.15 198.824C132.956 199.598 141.472 194.523 145.256 185.407C145.859 183.859 143.364 183.171 142.762 184.719C139.493 192.803 131.751 197.017 123.15 196.243C121.515 196.071 121.515 198.737 123.15 198.824Z" fill="black"/>
<path d="M61.474 147.565C61.474 149.113 61.388 152.639 63.4524 152.983C63.9685 153.069 64.6567 152.983 64.9147 152.381C66.033 150.145 67.3233 148.167 68.1835 145.845C68.5275 144.727 67.2372 143.867 66.291 144.383C65.1728 145.071 64.1405 145.759 63.1083 146.619C61.732 147.737 61.56 149.887 63.7965 149.973C63.3664 149.543 62.9363 149.113 62.5062 148.683C62.6783 150.575 64.4847 150.231 65.5169 149.285C66.119 148.683 67.4093 147.479 67.4093 146.447C67.4093 145.845 66.8071 145.071 66.119 145.157C65.6029 145.243 65.3448 145.329 65.0007 145.673C65.4308 145.587 65.8609 145.415 66.291 145.329C65.0868 144.985 63.9685 144.813 62.9363 145.587C62.2482 146.103 62.4202 147.135 61.9041 147.737C60.7858 148.941 62.5922 150.833 63.7105 149.543C64.1406 149.027 64.3986 148.511 64.5706 147.823C64.5706 147.737 64.7427 147.307 64.6567 147.393C64.3986 147.651 65.2588 147.651 65.5169 147.737C65.947 147.909 66.4631 147.737 66.8072 147.393C67.0652 147.135 66.8932 147.221 66.119 147.565C65.6889 147.135 65.2588 146.705 64.8287 146.275C64.8287 145.759 65.0868 145.587 64.7427 146.017C64.5707 146.189 64.4846 146.361 64.3126 146.533C64.1406 146.791 63.8825 146.963 63.7105 147.221C63.6244 147.307 63.5384 147.393 63.4524 147.479L63.3664 147.565C63.8825 147.049 64.4847 147.393 65.0868 148.511C65.0008 147.823 64.5707 147.221 63.7965 147.221C64.3986 147.221 64.8287 148.339 64.4847 148.769C64.6567 148.597 64.8287 148.425 65.0007 148.339C65.3448 148.081 65.6889 147.823 66.119 147.565C66.6351 147.221 67.1512 146.877 67.6674 146.533C67.0652 146.017 66.3771 145.587 65.7749 145.071C65.0008 147.221 63.7965 149.027 62.7643 151.005C63.2804 150.833 63.7105 150.575 64.2266 150.403C64.5707 150.489 64.5706 150.747 64.3986 150.145C64.3126 149.801 64.2266 149.457 64.2266 149.113C64.1406 148.597 64.1406 148.081 64.1406 147.479C64.0545 145.931 61.474 145.931 61.474 147.565Z" fill="black"/>
<path d="M142.16 149.629C142.16 149.199 141.988 148.855 141.73 148.511C141.386 148.167 140.869 148.081 140.439 148.167C138.977 148.425 138.633 151.521 138.461 152.639C138.289 154.273 139.923 155.477 141.041 154.015C141.644 153.241 141.902 151.779 142.16 150.833C142.332 150.231 142.504 149.543 142.676 148.941C142.762 148.683 142.762 148.511 142.848 148.253C143.02 147.737 142.848 148.253 142.676 148.425C142.246 148.511 141.816 148.683 141.386 148.769C141.127 148.597 140.869 148.339 140.611 148.167C140.525 147.995 140.525 147.823 140.439 147.565C140.869 147.135 141.3 146.705 141.73 146.275C140.267 146.361 138.977 147.565 138.031 148.683C137.085 149.801 136.827 151.779 138.547 152.037C138.547 151.177 138.547 150.317 138.547 149.457C136.827 149.543 136.741 151.177 137.859 151.951C138.461 152.381 139.407 152.639 140.181 152.811C140.955 153.069 141.816 153.327 142.676 153.327C144.052 153.327 144.568 151.779 143.708 150.833C143.364 151.607 143.106 152.295 142.762 153.069C144.912 152.811 144.912 150.145 145.084 148.511C144.998 148.855 144.826 149.113 144.74 149.457C143.966 149.113 143.278 148.855 142.504 148.511C142.504 148.597 142.504 148.597 142.504 148.683C143.02 148.253 143.622 147.823 144.138 147.479C142.762 147.135 138.719 146.103 138.375 148.339C138.203 149.543 138.289 152.209 140.009 152.123C140.525 152.123 140.955 151.865 141.386 151.521C141.558 151.349 141.644 151.263 141.816 151.091C142.074 150.833 141.988 151.005 141.73 151.005C143.364 150.833 143.364 148.253 141.73 148.425C140.955 148.511 140.439 148.855 139.923 149.371C139.837 149.457 139.321 149.887 139.579 149.715C141.386 148.511 141.041 150.919 140.955 149.973C140.955 149.715 140.955 149.371 140.869 149.113C140.869 149.371 140.095 149.629 140.439 149.543C140.267 149.543 140.783 149.543 140.783 149.543C141.127 149.543 141.472 149.629 141.816 149.629C142.332 149.715 142.848 149.801 143.364 149.973C144.138 150.145 144.998 149.543 144.998 148.769C144.998 148.683 144.998 148.683 144.998 148.597C144.998 147.479 143.622 146.791 142.762 147.651C142.332 148.081 142.418 148.769 142.332 149.285C142.332 149.543 142.246 149.887 142.16 150.145C142.16 150.317 142.074 150.489 141.988 150.661C141.816 151.091 141.644 150.661 142.59 150.575C141.472 150.747 140.869 151.865 141.644 152.811C141.041 152.123 143.278 150.919 142.332 150.919C142.16 150.919 142.16 150.919 142.332 150.919C142.246 150.919 142.16 150.919 142.074 150.833C141.644 150.747 141.213 150.661 140.869 150.489C140.439 150.403 140.009 150.231 139.665 150.059C139.579 150.059 139.149 149.801 139.407 149.973C138.977 149.801 139.149 149.629 139.493 150.231C139.579 150.575 139.579 150.919 139.665 151.263C139.493 151.521 139.235 151.779 139.063 152.037C138.891 152.123 138.719 152.123 138.547 152.209C140.267 152.123 140.181 149.801 138.547 149.629C139.493 150.059 139.837 150.489 139.579 151.091C139.579 151.005 139.665 150.919 139.751 150.833C140.009 150.489 140.267 150.231 140.611 149.973C140.869 149.801 141.041 149.543 141.3 149.371C141.472 149.285 142.074 149.027 141.73 149.027C142.418 148.941 143.02 148.511 143.02 147.737C143.02 146.877 142.246 146.189 141.386 146.447C140.783 146.619 140.525 147.049 140.353 147.651C140.009 148.597 139.837 149.543 139.579 150.489C139.407 151.005 139.235 151.607 139.063 152.123C138.977 152.295 138.977 152.467 138.891 152.725C138.805 153.069 138.977 152.467 138.891 152.725C138.891 152.811 138.805 152.811 138.805 152.897C140.439 153.843 141.127 153.929 140.955 153.155C141.041 153.585 140.955 153.241 140.955 153.155C140.955 152.897 141.041 152.639 141.041 152.295C141.127 151.865 141.299 151.435 141.386 151.005C141.386 151.091 141.558 150.489 141.472 150.661C141.73 150.145 141.644 150.833 140.955 150.919C140.525 150.833 140.095 150.661 139.665 150.575C139.579 150.317 139.407 150.145 139.321 149.887C139.665 151.263 142.246 151.263 142.16 149.629Z" fill="black"/>
<path d="M102.075 223.593C101.129 236.579 92.8709 259.543 76.2691 257.737C74.6348 257.565 74.6348 260.145 76.2691 260.317C94.4193 262.295 103.537 237.955 104.656 223.593C104.828 221.873 102.247 221.959 102.075 223.593Z" fill="black"/>
<path d="M128.139 223.937C129.515 231.935 130.805 240.45 136.052 246.986C142.074 254.554 152.826 255.328 161.686 255.07C163.32 254.984 163.32 252.404 161.686 252.49C153.17 252.748 143.794 252.06 137.859 245.18C132.87 239.418 131.837 230.473 130.633 223.249C130.375 221.615 127.88 222.303 128.139 223.937Z" fill="black"/>
<path d="M150.676 56.4C151.536 56.744 152.654 56.916 154.03 57.088C154.632 53.3038 156.009 49.0036 156.353 45.3054C154.202 44.7894 151.794 44.2734 149.385 44.1874C149.127 43.3273 148.869 42.5533 148.611 41.7792C149.643 41.5212 150.762 40.8332 152.31 39.7151C150.159 36.6189 148.181 32.4907 145.772 29.5666C144.482 30.2546 143.192 31.1147 141.902 31.9747C140.869 31.2867 139.751 30.8566 138.633 30.5126C139.063 29.6526 139.321 28.3625 139.493 26.7284C135.708 26.1264 131.407 24.7503 127.708 24.4063C127.278 25.9544 126.934 27.6745 126.676 29.4806C125.214 29.6526 123.838 30.0826 122.461 30.5986C122.117 29.8246 121.515 28.8785 120.741 27.7605C117.644 29.9106 113.515 31.8887 110.591 34.2968C111.365 35.5869 112.139 36.963 113.085 38.339C111.967 39.8871 111.021 41.6932 110.333 43.4993C108.354 43.6713 106.376 44.1013 104.656 44.5314C104.914 48.3156 106.376 52.6158 106.978 56.314C107.666 56.228 108.354 56.142 108.87 55.97C109.128 57.69 109.645 59.4102 110.419 60.9582C109.473 62.1623 108.612 63.4524 107.838 64.6564C110.677 67.1506 114.634 69.3007 117.644 71.6228C118.332 70.7627 118.849 69.9887 119.279 69.3007C121.257 70.0747 123.494 70.5907 125.816 70.8488C125.988 72.6549 126.418 74.3749 126.848 76.009C130.633 75.751 134.934 74.2889 138.633 73.6869C138.375 71.9668 138.117 70.7627 137.687 69.8167C138.805 69.4727 139.923 69.1287 140.955 68.6986C142.418 69.9887 144.138 71.1068 145.686 72.0528C148.181 69.2147 150.331 65.2585 152.654 62.2483C151.536 61.3883 150.676 60.7002 149.815 60.3562C149.901 60.0982 149.987 59.8402 150.073 59.5822C150.417 58.6361 150.59 57.518 150.676 56.4ZM121.687 57.8621C115.58 51.1537 121.859 38.339 131.063 40.0591L130.633 39.8871C133.902 40.1451 136.482 40.7472 138.203 44.1874C139.665 47.0255 140.611 51.5837 139.751 54.8519C137.945 61.3022 125.73 62.2483 121.687 57.8621Z" fill="#C4A0D8"/>
<path d="M100.268 65.8605C100.785 66.0325 101.559 66.2045 102.419 66.2905C102.763 63.8824 103.709 61.0443 103.881 58.6361C102.505 58.2921 100.871 57.9481 99.3223 57.8621C99.1502 57.3461 98.9782 56.83 98.8061 56.314C99.4943 56.142 100.182 55.712 101.215 54.9379C99.8384 52.9598 98.5481 50.2077 96.9998 48.4016C96.2256 48.8316 95.2794 49.3476 94.5052 49.9497C93.817 49.5196 93.1289 49.1756 92.3547 49.0036C92.6128 48.4016 92.7848 47.6275 92.9569 46.5095C90.5483 46.1655 87.7098 45.2194 85.3012 45.0474C85.0432 46.0795 84.7851 47.1975 84.613 48.3156C83.6668 48.4876 82.7207 48.7456 81.8605 49.0896C81.6024 48.5736 81.2583 47.9716 80.7422 47.2835C78.7638 48.6596 76.0112 49.9497 74.2048 51.4978C74.7209 52.3578 75.237 53.2179 75.8392 54.0779C75.151 55.11 74.5489 56.228 74.0327 57.4321C72.7425 57.5181 71.4522 57.8621 70.334 58.1201C70.506 60.5282 71.4522 63.3664 71.7963 65.7745C72.2264 65.6885 72.6565 65.6025 73.0866 65.6025C73.2586 66.7206 73.6027 67.8386 74.1188 68.8707C73.5167 69.6447 72.9145 70.5048 72.4844 71.2788C74.2908 72.9129 76.9574 74.289 78.8498 75.751C79.2799 75.149 79.624 74.719 79.882 74.289C81.1723 74.805 82.6346 75.149 84.0969 75.235C84.269 76.4391 84.527 77.5571 84.7851 78.5892C87.1936 78.4172 90.0322 77.4711 92.4408 77.1271C92.2687 76.0091 92.0967 75.235 91.8386 74.633C92.6128 74.461 93.3009 74.203 93.9891 73.859C94.9353 74.719 96.0535 75.407 97.0858 76.0091C98.7201 74.203 100.096 71.5368 101.559 69.6447C100.871 69.0427 100.268 68.6987 99.7524 68.3546C99.8384 68.1826 99.9244 68.0106 99.9244 67.8386C100.096 67.2366 100.182 66.5485 100.268 65.8605ZM81.4304 66.8066C77.4735 62.4203 81.5164 54.1639 87.5377 55.282L87.2796 55.196C89.4301 55.368 91.0645 55.712 92.1827 57.9481C93.1289 59.7542 93.731 62.7643 93.2149 64.9145C92.0106 69.0427 84.097 69.6447 81.4304 66.8066Z" fill="#7ADED4"/>
<path d="M115.924 92.3499C116.44 92.5219 117.042 92.6079 117.558 92.6939C118.247 92.7799 119.021 92.5219 119.107 91.8339C119.451 89.8557 119.967 87.9636 120.225 85.9855C120.311 85.2975 120.053 84.6095 119.365 84.4375C118.075 84.1794 116.87 83.9214 115.58 83.8354C116.01 84.1794 116.44 84.4375 116.784 84.7815C116.698 84.3514 116.526 84.0074 116.44 83.5774C116.268 84.0934 116.01 84.5235 115.838 85.0395C116.526 84.7815 117.128 84.4375 117.644 84.0074C118.247 83.6634 118.505 82.8894 118.075 82.2013C116.956 80.5672 116.01 78.8472 114.892 77.2131C114.462 76.6111 113.774 76.353 113.085 76.7831C111.795 77.5571 111.881 77.6431 110.591 77.1271C110.849 77.6431 111.193 78.1591 111.451 78.6751C111.709 78.0731 111.795 77.4711 111.881 76.7831C111.967 76.095 111.709 75.321 111.021 75.235C109.043 74.8909 107.15 74.3749 105.172 74.1169C104.484 74.0309 103.795 74.2889 103.623 74.977C103.279 76.439 103.365 76.611 101.989 77.1271C102.505 77.2991 102.935 77.5571 103.451 77.7291C103.193 77.2131 102.935 76.7831 102.591 76.353C102.247 75.837 101.473 75.493 100.785 75.923C99.1504 77.0411 97.4299 77.9871 95.7956 79.1052C95.1934 79.5352 94.9354 80.2232 95.3655 80.9113C96.5697 82.9754 95.2795 83.5774 93.215 84.0074C92.4408 84.1794 92.1828 84.9535 92.3548 85.5555C92.6129 87.5336 93.129 89.4257 93.4731 91.4038C93.6451 92.1779 94.4193 92.4359 95.0214 92.2639C95.3655 92.1779 95.6235 92.1779 95.9676 92.0919C95.4515 91.8338 94.9354 91.4898 94.4193 91.2318C94.7634 92.6939 94.8494 93.2959 94.0752 94.5C93.8171 94.93 93.8171 95.704 94.2472 96.0481C95.8816 97.3381 97.688 98.4562 99.3224 99.6603C99.9245 100.09 100.699 99.7463 101.129 99.2302C101.387 98.8862 101.645 98.4562 101.903 98.1122C101.387 98.2842 100.957 98.5422 100.441 98.7142C102.247 99.3162 102.763 99.1442 103.279 101.122C103.451 101.896 104.225 102.154 104.828 101.982C106.806 101.724 108.698 101.208 110.677 100.864C111.451 100.692 111.709 99.9183 111.537 99.3162C111.451 98.6282 111.365 98.0262 111.107 97.4241C110.849 97.9402 110.505 98.4562 110.247 98.9722C111.537 98.5422 112.053 99.2302 113.171 99.9183C113.602 100.176 114.376 100.176 114.72 99.7463C116.01 98.1122 117.128 96.3061 118.333 94.672C118.763 94.07 118.419 93.2959 117.902 92.8659C117.472 92.5219 117.042 92.1779 116.526 91.9199C116.698 92.4359 116.956 92.8659 117.128 93.3819C117.386 92.7799 117.472 92.0919 117.558 91.4038C117.816 89.7697 115.322 89.0817 115.064 90.7158C115.064 91.4038 114.892 92.0919 114.634 92.6939C114.462 93.2099 114.72 93.8979 115.236 94.156C115.752 94.414 116.182 94.758 116.612 95.102C116.44 94.5 116.268 93.8979 116.182 93.2959C115.064 94.844 114.118 96.3921 112.999 97.8542C113.515 97.7682 114.032 97.6821 114.548 97.6821C111.967 95.9621 112.311 95.618 109.645 96.4781C108.957 96.6501 108.526 97.3381 108.784 98.0262C109.043 98.6282 109.215 99.2302 109.215 99.9183C109.473 99.4022 109.817 98.8862 110.075 98.3702C108.096 98.7142 106.204 99.2302 104.225 99.4882C104.742 99.7463 105.258 100.09 105.774 100.348C105.516 99.4882 105.43 98.6282 105.258 97.8542C105.172 97.4241 104.742 96.9941 104.397 96.9941C103.279 96.8221 102.247 96.5641 101.215 96.2201C100.613 96.0481 100.097 96.3921 99.7525 96.8221C99.4944 97.1661 99.2363 97.5962 98.9783 97.9402C99.5804 97.7682 100.183 97.5962 100.785 97.5102C99.2364 96.3921 97.688 95.446 96.2257 94.328C96.3117 94.844 96.3977 95.36 96.3977 95.876C98.0321 93.2959 97.688 93.5539 96.9999 90.5438C96.8278 89.7697 96.0537 89.5117 95.4515 89.6837C95.1074 89.7697 94.8494 89.7697 94.5053 89.8557C95.0214 90.1137 95.5376 90.4578 96.0537 90.7158C95.7096 88.7377 95.1934 86.8456 94.9354 84.8675C94.6773 85.3835 94.3332 85.8995 94.0752 86.4156C97.602 85.6415 97.1719 85.8135 98.9783 82.8034C99.2363 82.4594 99.2363 81.8573 98.9783 81.5133C98.5482 80.9113 98.1181 80.2232 97.688 79.5352C97.516 80.1372 97.3439 80.7393 97.2579 81.3413C98.8923 80.1372 100.613 79.1912 102.247 78.1591C101.645 77.9871 101.043 77.8151 100.441 77.7291C100.785 78.1591 101.043 78.5891 101.301 79.1052C101.559 79.6212 102.247 79.8792 102.763 79.7072C103.451 79.4492 104.139 79.2772 104.828 79.1052C105.258 79.0192 105.688 78.5891 105.688 78.2451C105.774 77.3851 105.946 76.611 106.204 75.751C105.688 76.009 105.172 76.353 104.656 76.611C106.634 76.8691 108.526 77.3851 110.505 77.7291C110.247 77.2131 109.903 76.697 109.645 76.181C109.559 76.783 109.473 77.4711 109.215 78.0731C108.957 78.7612 109.473 79.4492 110.075 79.6212C110.505 79.7932 110.935 80.0512 111.365 80.2232C111.795 80.3952 112.311 80.4813 112.655 80.2232C113.257 79.7932 113.946 79.3632 114.548 79.0192C113.946 78.8472 113.343 78.6752 112.741 78.5892C113.946 80.2232 114.892 81.9433 115.924 83.5774C116.096 82.9754 116.268 82.3733 116.354 81.7713C115.838 82.2013 115.236 82.5454 114.548 82.8034C114.032 83.0614 113.774 83.7494 113.946 84.2654C114.032 84.6955 114.204 85.0395 114.29 85.4695C114.462 86.0716 114.978 86.3295 115.494 86.4156C116.526 86.5016 117.558 86.6736 118.591 86.9316C118.333 86.4156 117.988 85.8995 117.73 85.3835C117.472 87.3616 116.956 89.2537 116.612 91.2318C117.128 90.9738 117.644 90.6298 118.161 90.3718C117.558 90.2858 117.042 90.1998 116.526 90.0278C114.978 89.4257 114.29 91.9199 115.924 92.3499Z" fill="#F2F5F9"/>
<path d="M102.935 90.8878C100.871 88.4797 103.021 83.8354 106.29 84.2654C107.924 84.5235 108.612 82.2873 106.978 81.7713C106.892 81.7713 106.806 81.6853 106.806 81.6853C106.72 82.5453 106.548 83.4054 106.462 84.1795C108.182 84.3515 108.956 85.1255 109.472 86.7596C109.902 88.1357 110.161 90.0278 108.87 90.9738C107.322 92.1779 104.311 92.2639 102.935 90.8878C101.731 89.6837 99.9244 91.5758 101.129 92.6939C103.709 95.274 109.128 94.93 111.451 92.0919C112.999 90.1998 112.483 87.2756 111.623 85.1255C110.677 82.7174 108.87 81.8573 106.462 81.5993C104.913 81.4273 104.827 83.6634 106.118 84.0934C106.204 84.0934 106.29 84.1795 106.29 84.1795C106.548 83.3194 106.72 82.5453 106.978 81.6853C101.043 80.8253 97.3439 88.1357 101.129 92.6079C102.161 93.984 103.967 92.1779 102.935 90.8878Z" fill="#F2F5F9"/>
<path d="M23.5396 279.066C29.991 276.916 35.6683 272.443 42.2917 270.895C43.2379 270.637 42.8078 269.003 41.8616 269.261C35.2382 270.809 29.5609 275.282 23.1095 277.432C22.1633 277.69 22.5934 279.324 23.5396 279.066Z" fill="black"/>
<path d="M216.136 35.7589C230.501 35.9309 242.114 41.2632 254.156 48.4876C255.619 49.3477 256.909 47.1115 255.446 46.2515C242.974 38.7691 230.931 33.3508 216.05 33.1788C214.502 33.1788 214.502 35.7589 216.136 35.7589Z" fill="black"/>
<path d="M231.275 30.5986C237.985 32.4047 244.264 35.3289 249.597 39.7151C250.888 40.7471 252.694 38.941 251.404 37.909C245.64 33.2648 239.017 29.9966 231.878 28.1045C230.329 27.6745 229.641 30.1686 231.275 30.5986Z" fill="black"/>
<path d="M92.7697 249C91.5721 249 90.3745 250.196 87.9792 249C73.6079 282.494 187.381 293.26 163.429 252.589C177.8 260.962 178.998 284.887 165.824 293.26C152.65 301.634 123.908 296.849 109.536 294.456C96.3626 292.064 74.8055 289.672 67.6198 276.513C60.4341 263.355 68.8174 250.196 83.1888 250.196" fill="#778692"/>
<path d="M85.6453 258.167C78.1616 263.327 72.1403 270.379 70.506 279.496C70.1619 281.302 72.9145 282.076 73.2586 280.27C74.7209 271.841 80.2261 265.391 87.0216 260.661C88.57 259.629 87.1936 257.135 85.6453 258.167Z" fill="black"/>
<path d="M96.9998 269.003C96.8277 275.712 95.0214 282.592 93.473 289.128C93.0429 290.934 95.7955 291.622 96.2256 289.902C97.8599 283.108 99.7524 276.056 99.9244 269.089C99.9244 267.197 97.0858 267.197 96.9998 269.003Z" fill="black"/>
<path d="M115.322 276.83C119.193 282.506 118.762 289.816 118.762 296.439C118.762 298.331 121.601 298.331 121.601 296.439C121.601 289.816 121.945 281.388 117.816 275.368C116.698 273.819 114.289 275.282 115.322 276.83Z" fill="black"/>
<path d="M141.472 278.808C148.181 280.442 149.988 288.354 150.074 294.288C150.074 296.095 152.912 296.095 152.912 294.288C152.74 287.064 150.246 278.034 142.246 276.056C140.439 275.712 139.665 278.378 141.472 278.808Z" fill="black"/>
<path d="M161.428 275.195C168.051 274.249 172.094 279.324 174.159 285.086C174.761 286.806 177.513 286.032 176.911 284.312C174.331 276.916 169.084 271.325 160.74 272.443C158.933 272.701 159.708 275.454 161.428 275.195Z" fill="black"/>
</svg>
