<?xml version="1.0" encoding="utf-8"?>
<!-- Generator: Adobe Illustrator 24.1.2, SVG Export Plug-In . SVG Version: 6.00 Build 0)  -->
<svg version="1.1" xmlns="http://www.w3.org/2000/svg" xmlns:xlink="http://www.w3.org/1999/xlink" x="0px" y="0px"
	 viewBox="0 0 967.8 943" style="enable-background:new 0 0 967.8 943;" xml:space="preserve">
<style type="text/css">
	.st0{fill:#555E75;}
	.st1{fill:url(#SVGID_1_);}
	.st2{fill:url(#SVGID_2_);}
	.st3{fill:url(#SVGID_3_);}
	.st4{fill:url(#SVGID_4_);}
	.st5{fill:url(#SVGID_5_);}
	.st6{fill:#FFF200;}
</style>
<g id="Background">
</g>
<g id="element">
	<g>
		<g>
			<g>
				<path class="st0" d="M214.2,342.9l-1.9-1.1c25.6-44.2,62.3-81.2,106.3-107.2c45.3-26.7,97.2-40.8,150.1-40.8v2.2
					c-52.5,0-104,14-149,40.5C276,262.3,239.5,299.1,214.2,342.9z"/>
				<path class="st0" d="M209.6,633.3L209.6,633.3c-0.3-0.5-0.1-1.2,0.4-1.5l0,0c0.5-0.3,1.2-0.1,1.5,0.4l0,0
					c0.3,0.5,0.1,1.2-0.4,1.5l0,0c-0.2,0.1-0.4,0.1-0.5,0.1l0,0C210.2,633.8,209.8,633.6,209.6,633.3z M206.5,627.4
					c-0.3-0.5-0.1-1.2,0.5-1.5l0,0c0.5-0.3,1.2-0.1,1.5,0.5l0,0c0.3,0.5,0.1,1.2-0.5,1.5l0,0c-0.2,0.1-0.3,0.1-0.5,0.1l0,0
					C207.1,628,206.7,627.8,206.5,627.4z M203.5,621.5c-0.3-0.5,0-1.2,0.5-1.5l0,0c0.5-0.3,1.2,0,1.5,0.5l0,0l0,0l0,0
					c0.3,0.5,0,1.2-0.5,1.5l0,0c-0.2,0.1-0.3,0.1-0.5,0.1l0,0C204,622.1,203.7,621.9,203.5,621.5z M200.6,615.6L200.6,615.6
					c-0.3-0.6,0-1.2,0.5-1.5l0,0c0.6-0.3,1.2,0,1.5,0.5l0,0c0.3,0.5,0,1.2-0.5,1.5l0,0c-0.1,0.1-0.3,0.1-0.5,0.1l0,0
					C201.2,616.2,200.8,616,200.6,615.6z M197.8,609.5c-0.2-0.6,0-1.2,0.6-1.5l0,0c0.6-0.2,1.2,0,1.5,0.6l0,0c0.2,0.6,0,1.2-0.6,1.4
					l0,0c-0.1,0.1-0.3,0.1-0.4,0.1l0,0C198.4,610.2,198,609.9,197.8,609.5z M195.2,603.4c-0.2-0.6,0-1.2,0.6-1.4l0,0
					c0.6-0.2,1.2,0,1.4,0.6l0,0c0.2,0.6,0,1.2-0.6,1.4l0,0c-0.1,0.1-0.3,0.1-0.4,0.1l0,0C195.8,604.1,195.4,603.9,195.2,603.4z
					 M192.7,597.3c-0.2-0.6,0.1-1.2,0.6-1.4l0,0c0.6-0.2,1.2,0.1,1.4,0.6l0,0c0,0,0,0,0,0l0,0c0.2,0.6-0.1,1.2-0.6,1.4l0,0
					c-0.1,0-0.3,0.1-0.4,0.1l0,0C193.3,598,192.9,597.7,192.7,597.3z M190.4,591.1c-0.2-0.6,0.1-1.2,0.7-1.4l0,0
					c0.6-0.2,1.2,0.1,1.4,0.7l0,0c0.2,0.6-0.1,1.2-0.7,1.4l0,0c-0.1,0-0.3,0.1-0.4,0.1l0,0C191,591.8,190.6,591.5,190.4,591.1z
					 M188.2,584.8c-0.2-0.6,0.1-1.2,0.7-1.4l0,0c0.6-0.2,1.2,0.1,1.4,0.7l0,0c0.2,0.6-0.1,1.2-0.7,1.4l0,0c-0.1,0-0.2,0.1-0.4,0.1
					l0,0C188.8,585.6,188.4,585.3,188.2,584.8z M186.2,578.5c-0.2-0.6,0.1-1.2,0.7-1.4l0,0c0.6-0.2,1.2,0.1,1.4,0.7l0,0
					c0.2,0.6-0.1,1.2-0.7,1.4l0,0c-0.1,0-0.2,0.1-0.3,0.1l0,0C186.7,579.3,186.3,579,186.2,578.5z M184.2,572.2
					c-0.2-0.6,0.2-1.2,0.8-1.4l0,0c0.6-0.2,1.2,0.2,1.4,0.7l0,0c0.2,0.6-0.2,1.2-0.8,1.4l0,0c-0.1,0-0.2,0-0.3,0l0,0
					C184.8,573,184.4,572.7,184.2,572.2z M182.5,565.8c-0.2-0.6,0.2-1.2,0.8-1.3l0,0c0.6-0.2,1.2,0.2,1.3,0.8l0,0
					c0.2,0.6-0.2,1.2-0.8,1.3l0,0c-0.1,0-0.2,0-0.3,0l0,0C183,566.6,182.6,566.3,182.5,565.8z M180.9,559.4
					c-0.1-0.6,0.2-1.2,0.8-1.3l0,0c0.6-0.1,1.2,0.2,1.3,0.8l0,0l0,0l0,0c0.1,0.6-0.2,1.2-0.8,1.3l0,0c-0.1,0-0.2,0-0.3,0l0,0
					C181.4,560.2,181,559.9,180.9,559.4z M179.4,552.9c-0.1-0.6,0.2-1.2,0.8-1.3l0,0c0.6-0.1,1.2,0.2,1.3,0.8l0,0
					c0.1,0.6-0.2,1.2-0.8,1.3l0,0c-0.1,0-0.2,0-0.2,0l0,0C179.9,553.8,179.5,553.4,179.4,552.9z M178,546.4
					c-0.1-0.6,0.3-1.2,0.9-1.3l0,0c0.6-0.1,1.2,0.3,1.3,0.9l0,0c0.1,0.6-0.3,1.2-0.9,1.3l0,0c-0.1,0-0.1,0-0.2,0l0,0
					C178.6,547.3,178.1,546.9,178,546.4z M176.8,539.9L176.8,539.9c-0.1-0.6,0.3-1.2,0.9-1.3l0,0c0.6-0.1,1.2,0.3,1.3,0.9l0,0
					c0.1,0.6-0.3,1.2-0.9,1.3l0,0c-0.1,0-0.1,0-0.2,0l0,0C177.4,540.8,176.9,540.4,176.8,539.9z M175.8,533.3L175.8,533.3
					c-0.1-0.6,0.3-1.2,0.9-1.2l0,0c0.6-0.1,1.2,0.3,1.2,0.9l0,0c0.1,0.6-0.3,1.2-0.9,1.2l0,0c-0.1,0-0.1,0-0.2,0l0,0
					C176.4,534.3,175.9,533.9,175.8,533.3z M174.9,526.8c-0.1-0.6,0.4-1.2,1-1.2l0,0c0.6-0.1,1.2,0.4,1.2,1l0,0
					c0.1,0.6-0.4,1.1-1,1.2l0,0c0,0-0.1,0-0.1,0l0,0C175.5,527.7,175,527.3,174.9,526.8z M174.2,520.2L174.2,520.2
					c-0.1-0.6,0.4-1.1,1-1.2l0,0c0.6-0.1,1.1,0.4,1.2,1l0,0c0,0,0,0,0,0l0,0c0.1,0.6-0.4,1.1-1,1.2l0,0c0,0-0.1,0-0.1,0l0,0
					C174.7,521.2,174.2,520.8,174.2,520.2z M173.6,513.6c0-0.6,0.4-1.1,1-1.2l0,0c0.6,0,1.1,0.4,1.2,1l0,0c0,0.6-0.4,1.1-1,1.2l0,0
					c0,0-0.1,0-0.1,0l0,0C174.1,514.6,173.6,514.2,173.6,513.6z M173.1,507L173.1,507c0-0.6,0.4-1.1,1-1.2l0,0c0.6,0,1.1,0.4,1.2,1
					l0,0c0,0.6-0.4,1.1-1,1.2l0,0c0,0,0,0-0.1,0l0,0C173.6,508,173.2,507.6,173.1,507z M172.8,500.3c0-0.6,0.5-1.1,1.1-1.1l0,0
					c0.6,0,1.1,0.5,1.1,1.1l0,0l0,0l0,0c0,0.6-0.5,1.1-1.1,1.1l0,0c0,0,0,0,0,0l0,0C173.3,501.4,172.8,500.9,172.8,500.3z
					 M172.7,493.7c0-0.6,0.5-1.1,1.1-1.1l0,0c0.6,0,1.1,0.5,1.1,1.1l0,0l0,0l0,0c0,0.6-0.5,1.1-1.1,1.1l0,0c0,0,0,0,0,0l0,0
					C173.2,494.8,172.7,494.3,172.7,493.7z M173.7,488.2c-0.6,0-1.1-0.5-1.1-1.1l0,0c0-0.6,0.5-1.1,1.1-1.1l0,0
					c0.6,0,1.1,0.5,1.1,1.1l0,0C174.8,487.7,174.3,488.2,173.7,488.2L173.7,488.2C173.7,488.2,173.7,488.2,173.7,488.2z
					 M173.8,481.6c-0.6,0-1.1-0.5-1.1-1.1l0,0c0-0.6,0.5-1.1,1.1-1.1l0,0c0.6,0,1.1,0.5,1.1,1.1l0,0l0,0l0,0
					C175,481.1,174.5,481.6,173.8,481.6L173.8,481.6C173.9,481.6,173.9,481.6,173.8,481.6z M174.1,475c-0.6,0-1.1-0.5-1-1.2l0,0
					c0-0.6,0.5-1.1,1.2-1l0,0c0.6,0,1.1,0.5,1,1.2l0,0C175.2,474.6,174.7,475,174.1,475L174.1,475C174.1,475,174.1,475,174.1,475z
					 M174.5,468.4c-0.6,0-1.1-0.6-1-1.2l0,0c0-0.6,0.6-1.1,1.2-1l0,0c0.6,0,1.1,0.6,1,1.2l0,0C175.6,468,175.1,468.4,174.5,468.4
					L174.5,468.4C174.6,468.4,174.5,468.4,174.5,468.4z M175,461.9c-0.6-0.1-1.1-0.6-1-1.2l0,0c0.1-0.6,0.6-1.1,1.2-1l0,0
					c0.6,0.1,1,0.6,1,1.2l0,0c-0.1,0.6-0.5,1-1.1,1l0,0C175.1,461.9,175.1,461.9,175,461.9z M175.7,455.3c-0.6-0.1-1-0.6-1-1.2l0,0
					c0.1-0.6,0.6-1,1.2-1l0,0c0.6,0.1,1,0.6,1,1.2l0,0c0,0,0,0,0,0l0,0c-0.1,0.6-0.5,1-1.1,1l0,0
					C175.8,455.3,175.8,455.3,175.7,455.3z M176.6,448.8c-0.6-0.1-1-0.6-0.9-1.2l0,0c0.1-0.6,0.6-1,1.2-0.9l0,0
					c0.6,0.1,1,0.6,0.9,1.2l0,0l0,0l0,0c-0.1,0.5-0.6,0.9-1.1,0.9l0,0C176.7,448.8,176.6,448.8,176.6,448.8z M177.6,442.2
					c-0.6-0.1-1-0.7-0.9-1.3l0,0c0.1-0.6,0.7-1,1.3-0.9l0,0c0.6,0.1,1,0.7,0.9,1.3l0,0c0,0,0,0,0,0l0,0c-0.1,0.5-0.6,0.9-1.1,0.9
					l0,0C177.7,442.3,177.6,442.3,177.6,442.2z M178.7,435.8c-0.6-0.1-1-0.7-0.9-1.3l0,0c0.1-0.6,0.7-1,1.3-0.9l0,0
					c0.6,0.1,1,0.7,0.9,1.3l0,0c-0.1,0.5-0.6,0.9-1.1,0.9l0,0C178.8,435.8,178.7,435.8,178.7,435.8z M180,429.3
					c-0.6-0.1-1-0.7-0.8-1.3l0,0c0.1-0.6,0.7-1,1.3-0.8l0,0c0.6,0.1,1,0.7,0.8,1.3l0,0c-0.1,0.5-0.6,0.9-1.1,0.9l0,0
					C180.1,429.3,180,429.3,180,429.3z M181.4,422.8c-0.6-0.1-1-0.7-0.8-1.3l0,0c0.1-0.6,0.7-1,1.3-0.8l0,0c0.6,0.1,1,0.7,0.8,1.3
					l0,0c-0.1,0.5-0.6,0.8-1.1,0.8l0,0C181.5,422.9,181.5,422.9,181.4,422.8z M182.9,416.4c-0.6-0.2-0.9-0.8-0.8-1.3l0,0
					c0.2-0.6,0.8-0.9,1.3-0.8l0,0c0.6,0.1,0.9,0.8,0.8,1.3l0,0c-0.1,0.5-0.6,0.8-1.1,0.8l0,0C183.1,416.5,183,416.5,182.9,416.4z
					 M184.7,410.1c-0.6-0.2-0.9-0.8-0.8-1.4l0,0c0.2-0.6,0.8-0.9,1.4-0.8l0,0c0.6,0.2,0.9,0.8,0.8,1.4l0,0c-0.1,0.5-0.6,0.8-1.1,0.8
					l0,0C184.9,410.1,184.8,410.1,184.7,410.1z M186.5,403.7c-0.6-0.2-0.9-0.8-0.7-1.4l0,0c0.2-0.6,0.8-0.9,1.4-0.7l0,0
					c0.6,0.2,0.9,0.8,0.7,1.4l0,0c-0.1,0.5-0.6,0.8-1.1,0.8l0,0C186.7,403.8,186.6,403.8,186.5,403.7z M188.5,397.4
					c-0.6-0.2-0.9-0.8-0.7-1.4l0,0c0.2-0.6,0.8-0.9,1.4-0.7l0,0c0.6,0.2,0.9,0.8,0.7,1.4l0,0c-0.2,0.5-0.6,0.8-1,0.8l0,0
					C188.7,397.5,188.6,397.5,188.5,397.4z M190.6,391.2c-0.6-0.2-0.9-0.8-0.7-1.4l0,0c0.2-0.6,0.8-0.9,1.4-0.7l0,0
					c0.6,0.2,0.9,0.8,0.7,1.4l0,0c-0.2,0.5-0.6,0.7-1,0.7l0,0C190.9,391.3,190.8,391.3,190.6,391.2z M192.9,385
					c-0.6-0.2-0.9-0.9-0.6-1.4l0,0c0.2-0.6,0.9-0.8,1.4-0.6l0,0c0.6,0.2,0.9,0.9,0.6,1.4l0,0c-0.2,0.4-0.6,0.7-1,0.7l0,0
					C193.2,385.1,193,385.1,192.9,385z M195.3,378.9c-0.6-0.2-0.8-0.9-0.6-1.4l0,0c0.2-0.6,0.9-0.8,1.4-0.6l0,0
					c0.6,0.2,0.8,0.9,0.6,1.4l0,0c-0.2,0.4-0.6,0.7-1,0.7l0,0C195.6,379,195.5,378.9,195.3,378.9z M197.9,372.8
					c-0.6-0.2-0.8-0.9-0.6-1.5v0c0.2-0.6,0.9-0.8,1.4-0.6l0,0c0.6,0.2,0.8,0.9,0.6,1.4l0,0c-0.2,0.4-0.6,0.7-1,0.7l0,0
					C198.2,372.9,198,372.9,197.9,372.8z M200.6,366.8c-0.6-0.3-0.8-0.9-0.5-1.5l0,0c0.3-0.5,0.9-0.8,1.5-0.5l0,0
					c0.6,0.3,0.8,0.9,0.5,1.5l0,0l0,0l0,0c-0.2,0.4-0.6,0.6-1,0.6l0,0C200.9,366.9,200.7,366.8,200.6,366.8z M203.4,360.8
					c-0.5-0.3-0.8-0.9-0.5-1.5l0,0c0.3-0.5,0.9-0.8,1.5-0.5l0,0c0.5,0.3,0.8,0.9,0.5,1.5l0,0c-0.2,0.4-0.6,0.6-1,0.6l0,0
					C203.7,360.9,203.5,360.9,203.4,360.8z M206.3,354.9c-0.5-0.3-0.7-0.9-0.5-1.5l0,0c0.3-0.5,0.9-0.7,1.5-0.5l0,0
					c0.5,0.3,0.7,0.9,0.5,1.5l0,0l0,0l0,0c-0.2,0.4-0.6,0.6-1,0.6l0,0C206.7,355,206.5,355,206.3,354.9z M209.4,349.1
					c-0.5-0.3-0.7-1-0.4-1.5v0c0.3-0.5,1-0.7,1.5-0.4l0,0c0.5,0.3,0.7,1,0.4,1.5l0,0l0,0l0,0c-0.2,0.4-0.6,0.6-1,0.6l0,0
					C209.8,349.2,209.6,349.2,209.4,349.1z M212.7,343.3c-0.5-0.3-0.7-1-0.4-1.5l0,0c0.3-0.5,1-0.7,1.5-0.4l0,0
					c0.5,0.3,0.7,1,0.4,1.5l0,0c-0.2,0.4-0.6,0.6-1,0.6l0,0C213,343.5,212.8,343.4,212.7,343.3z"/>
				<path class="st0" d="M723.1,342.9c-0.3-0.5-0.1-1.2,0.4-1.5l0,0c0.5-0.3,1.2-0.1,1.5,0.4l0,0c0.3,0.5,0.1,1.2-0.4,1.5l0,0
					c-0.2,0.1-0.4,0.1-0.5,0.1l0,0C723.7,343.5,723.3,343.3,723.1,342.9z M719.8,337.3c-0.3-0.5-0.2-1.2,0.4-1.5l0,0
					c0.5-0.3,1.2-0.1,1.5,0.4l0,0c0.3,0.5,0.2,1.2-0.4,1.5l0,0c-0.2,0.1-0.4,0.2-0.6,0.2l0,0C720.3,337.8,720,337.6,719.8,337.3z
					 M716.3,331.7c-0.3-0.5-0.2-1.2,0.3-1.5l0,0c0.5-0.3,1.2-0.2,1.5,0.3l0,0c0.3,0.5,0.2,1.2-0.3,1.5l0,0c-0.2,0.1-0.4,0.2-0.6,0.2
					l0,0C716.9,332.2,716.5,332,716.3,331.7z M712.7,326.2c-0.3-0.5-0.2-1.2,0.3-1.5l0,0c0.5-0.3,1.2-0.2,1.5,0.3l0,0
					c0.3,0.5,0.2,1.2-0.3,1.5l0,0c-0.2,0.1-0.4,0.2-0.6,0.2l0,0C713.2,326.7,712.9,326.5,712.7,326.2z M708.9,320.8
					c-0.4-0.5-0.2-1.2,0.3-1.5l0,0c0.5-0.4,1.2-0.2,1.5,0.3h0c0.4,0.5,0.2,1.2-0.3,1.5l0,0c-0.2,0.1-0.4,0.2-0.6,0.2l0,0
					C709.5,321.2,709.2,321.1,708.9,320.8z M705.1,315.4c-0.4-0.5-0.3-1.2,0.2-1.5l0,0c0.5-0.4,1.2-0.3,1.5,0.2l0,0
					c0.4,0.5,0.3,1.2-0.2,1.5l0,0c-0.2,0.1-0.4,0.2-0.6,0.2l0,0C705.6,315.9,705.3,315.7,705.1,315.4z M701.1,310.2L701.1,310.2
					L701.1,310.2c-0.4-0.5-0.3-1.2,0.2-1.5l0,0c0.5-0.4,1.2-0.3,1.5,0.2l0,0c0.4,0.5,0.3,1.2-0.2,1.5l0,0c-0.2,0.2-0.4,0.2-0.7,0.2
					l0,0C701.7,310.6,701.3,310.5,701.1,310.2z M697,305L697,305L697,305c-0.4-0.5-0.3-1.2,0.2-1.5l0,0c0.5-0.4,1.2-0.3,1.6,0.2l0,0
					c0.4,0.5,0.3,1.2-0.2,1.6l0,0c-0.2,0.2-0.4,0.2-0.7,0.2l0,0C697.6,305.4,697.3,305.3,697,305z M692.9,300
					c-0.4-0.5-0.3-1.2,0.1-1.5l0,0c0.5-0.4,1.2-0.3,1.6,0.1l0,0c0.4,0.5,0.3,1.2-0.1,1.6l0,0c-0.2,0.2-0.5,0.3-0.7,0.3l0,0
					C693.4,300.3,693.1,300.2,692.9,300z M688.5,295L688.5,295L688.5,295c-0.4-0.5-0.4-1.1,0.1-1.6l0,0c0.5-0.4,1.1-0.4,1.6,0.1l0,0
					c0.4,0.5,0.4,1.1-0.1,1.6l0,0c-0.2,0.2-0.5,0.3-0.7,0.3l0,0C689.1,295.4,688.8,295.2,688.5,295z M684.1,290.1
					c-0.4-0.4-0.4-1.1,0.1-1.6l0,0c0.4-0.4,1.1-0.4,1.6,0.1l0,0c0.4,0.4,0.4,1.1-0.1,1.6l0,0c-0.2,0.2-0.5,0.3-0.7,0.3l0,0
					C684.6,290.5,684.3,290.3,684.1,290.1z M679.6,285.3L679.6,285.3L679.6,285.3c-0.4-0.4-0.4-1.1,0-1.6l0,0c0.4-0.4,1.1-0.4,1.6,0
					v0c0.4,0.4,0.4,1.1,0,1.6l0,0c-0.2,0.2-0.5,0.3-0.8,0.3l0,0C680.1,285.7,679.8,285.6,679.6,285.3z M675,280.7
					c-0.4-0.4-0.4-1.1,0-1.6l0,0c0.4-0.4,1.1-0.4,1.6,0l0,0c0.4,0.4,0.4,1.1,0,1.6l0,0c-0.2,0.2-0.5,0.3-0.8,0.3l0,0
					C675.5,281,675.2,280.9,675,280.7z M670.2,276.1c-0.4-0.4-0.5-1.1,0-1.6l0,0c0.4-0.4,1.1-0.5,1.6,0l0,0c0.4,0.4,0.5,1.1,0,1.6
					l0,0c-0.2,0.2-0.5,0.3-0.8,0.3l0,0C670.7,276.4,670.4,276.3,670.2,276.1z M665.4,271.6c-0.5-0.4-0.5-1.1-0.1-1.6l0,0
					c0.4-0.5,1.1-0.5,1.6-0.1l0,0c0.5,0.4,0.5,1.1,0.1,1.6l0,0c-0.2,0.2-0.5,0.4-0.8,0.4l0,0C665.9,271.9,665.6,271.8,665.4,271.6z
					 M660.5,267.3c-0.5-0.4-0.5-1.1-0.1-1.6l0,0c0.4-0.5,1.1-0.5,1.6-0.1l0,0c0.5,0.4,0.5,1.1,0.1,1.6l0,0c-0.2,0.3-0.5,0.4-0.8,0.4
					l0,0C660.9,267.6,660.7,267.5,660.5,267.3z M655.5,263.1c-0.5-0.4-0.5-1.1-0.1-1.6l0,0c0.4-0.5,1.1-0.5,1.5-0.1l0,0
					c0.5,0.4,0.5,1.1,0.2,1.5l0,0c-0.2,0.3-0.5,0.4-0.9,0.4l0,0C655.9,263.3,655.7,263.2,655.5,263.1z M650.3,258.9L650.3,258.9
					L650.3,258.9c-0.5-0.4-0.6-1.1-0.2-1.5l0,0c0.4-0.5,1.1-0.6,1.5-0.2l0,0c0.5,0.4,0.6,1.1,0.2,1.5l0,0c-0.2,0.3-0.5,0.4-0.9,0.4
					l0,0C650.8,259.2,650.5,259.1,650.3,258.9z M645.1,254.9L645.1,254.9L645.1,254.9c-0.5-0.4-0.6-1.1-0.2-1.5l0,0
					c0.4-0.5,1.1-0.6,1.5-0.2l0,0c0.5,0.4,0.6,1.1,0.2,1.5l0,0c-0.2,0.3-0.5,0.4-0.9,0.4l0,0C645.6,255.1,645.3,255.1,645.1,254.9z
					 M639.8,251c-0.5-0.4-0.6-1-0.3-1.5l0,0c0.4-0.5,1-0.6,1.5-0.3l0,0c0.5,0.4,0.6,1,0.3,1.5l0,0c-0.2,0.3-0.5,0.5-0.9,0.5l0,0
					C640.3,251.2,640,251.2,639.8,251z M634.5,247.3L634.5,247.3L634.5,247.3c-0.5-0.3-0.6-1-0.3-1.5l0,0c0.3-0.5,1-0.6,1.5-0.3v0
					c0.5,0.3,0.6,1,0.3,1.5l0,0c-0.2,0.3-0.6,0.5-0.9,0.5l0,0C634.9,247.5,634.7,247.4,634.5,247.3z M629,243.6
					c-0.5-0.3-0.6-1-0.3-1.5l0,0c0.3-0.5,1-0.7,1.5-0.3l0,0c0.5,0.3,0.6,1,0.3,1.5l0,0c-0.2,0.3-0.6,0.5-0.9,0.5l0,0
					C629.4,243.8,629.2,243.7,629,243.6z M623.5,240.1c-0.5-0.3-0.7-1-0.4-1.5l0,0c0.3-0.5,1-0.7,1.5-0.4l0,0c0.5,0.3,0.7,1,0.4,1.5
					l0,0c-0.2,0.3-0.6,0.5-0.9,0.5l0,0C623.8,240.2,623.6,240.2,623.5,240.1z M617.8,236.7C617.8,236.7,617.8,236.7,617.8,236.7
					L617.8,236.7c-0.5-0.3-0.7-1-0.4-1.5l0,0c0.3-0.5,1-0.7,1.5-0.4l0,0c0.5,0.3,0.7,1,0.4,1.5l0,0c-0.2,0.3-0.6,0.5-0.9,0.5l0,0
					C618.2,236.8,618,236.8,617.8,236.7z M612.2,233.4c-0.5-0.3-0.7-1-0.4-1.5l0,0c0.3-0.5,1-0.7,1.5-0.4l0,0c0.5,0.3,0.7,1,0.4,1.5
					l0,0c-0.2,0.4-0.6,0.6-1,0.6l0,0C612.5,233.5,612.3,233.5,612.2,233.4z M606.4,230.3L606.4,230.3L606.4,230.3
					c-0.5-0.3-0.7-1-0.5-1.5l0,0c0.3-0.5,1-0.7,1.5-0.5l0,0c0.5,0.3,0.7,1,0.5,1.5l0,0c-0.2,0.4-0.6,0.6-1,0.6l0,0
					C606.7,230.4,606.6,230.3,606.4,230.3z M600.6,227.2c-0.5-0.3-0.8-0.9-0.5-1.5l0,0c0.3-0.5,0.9-0.8,1.5-0.5l0,0
					c0.5,0.3,0.8,0.9,0.5,1.5l0,0c-0.2,0.4-0.6,0.6-1,0.6l0,0C600.9,227.4,600.7,227.3,600.6,227.2z M594.7,224.4
					c-0.5-0.3-0.8-0.9-0.5-1.5l0,0c0.3-0.6,0.9-0.8,1.5-0.5l0,0c0.5,0.3,0.8,0.9,0.5,1.5l0,0c-0.2,0.4-0.6,0.6-1,0.6l0,0
					C595,224.5,594.8,224.4,594.7,224.4z M588.7,221.6c-0.6-0.2-0.8-0.9-0.6-1.5l0,0c0.2-0.6,0.9-0.8,1.5-0.6h0
					c0.6,0.2,0.8,0.9,0.6,1.5l0,0c-0.2,0.4-0.6,0.6-1,0.6l0,0C589,221.7,588.9,221.7,588.7,221.6z M582.7,219L582.7,219L582.7,219
					c-0.6-0.2-0.8-0.9-0.6-1.4l0,0c0.2-0.6,0.9-0.8,1.4-0.6v0c0.6,0.2,0.8,0.9,0.6,1.4l0,0c-0.2,0.4-0.6,0.7-1,0.7l0,0
					C583,219.1,582.8,219,582.7,219z M576.6,216.5L576.6,216.5L576.6,216.5c-0.6-0.2-0.8-0.9-0.6-1.4l0,0c0.2-0.6,0.9-0.8,1.4-0.6
					l0,0c0.6,0.2,0.8,0.9,0.6,1.4l0,0c-0.2,0.4-0.6,0.7-1,0.7l0,0C576.9,216.6,576.8,216.6,576.6,216.5z M570.5,214.2
					C570.5,214.2,570.5,214.2,570.5,214.2L570.5,214.2c-0.6-0.2-0.9-0.8-0.6-1.4l0,0c0.2-0.6,0.8-0.9,1.4-0.6l0,0
					c0.6,0.2,0.9,0.8,0.6,1.4l0,0c-0.2,0.4-0.6,0.7-1,0.7l0,0C570.7,214.2,570.6,214.2,570.5,214.2z M564.3,212L564.3,212L564.3,212
					c-0.6-0.2-0.9-0.8-0.7-1.4l0,0c0.2-0.6,0.8-0.9,1.4-0.7l0,0c0.6,0.2,0.9,0.8,0.7,1.4l0,0c-0.2,0.5-0.6,0.7-1,0.7l0,0
					C564.6,212,564.4,212,564.3,212z M558.1,209.9c-0.6-0.2-0.9-0.8-0.7-1.4l0,0c0.2-0.6,0.8-0.9,1.4-0.7l0,0
					c0.6,0.2,0.9,0.8,0.7,1.4l0,0c-0.1,0.5-0.6,0.8-1.1,0.8l0,0C558.3,209.9,558.2,209.9,558.1,209.9z M551.8,208
					c-0.6-0.2-0.9-0.8-0.7-1.4l0,0c0.2-0.6,0.8-0.9,1.4-0.7l0,0c0.6,0.2,0.9,0.8,0.7,1.4l0,0c-0.1,0.5-0.6,0.8-1.1,0.8l0,0
					C552,208,551.9,208,551.8,208z M545.5,206.2c-0.6-0.2-0.9-0.8-0.8-1.3l0,0c0.2-0.6,0.8-0.9,1.3-0.8l0,0c0.6,0.2,0.9,0.8,0.8,1.3
					l0,0c-0.1,0.5-0.6,0.8-1.1,0.8l0,0C545.7,206.2,545.6,206.2,545.5,206.2z M539.2,204.5L539.2,204.5L539.2,204.5
					c-0.6-0.1-0.9-0.7-0.8-1.3l0,0c0.1-0.6,0.7-1,1.3-0.8l0,0c0.6,0.1,1,0.7,0.8,1.3l0,0c-0.1,0.5-0.6,0.8-1.1,0.8l0,0
					C539.3,204.6,539.3,204.6,539.2,204.5z M532.8,203.1c-0.6-0.1-1-0.7-0.8-1.3l0,0c0.1-0.6,0.7-1,1.3-0.8v0c0.6,0.1,1,0.7,0.8,1.3
					l0,0c-0.1,0.5-0.6,0.9-1.1,0.9l0,0C532.9,203.1,532.9,203.1,532.8,203.1z M526.4,201.7c-0.6-0.1-1-0.7-0.9-1.3l0,0
					c0.1-0.6,0.7-1,1.3-0.9l0,0c0.6,0.1,1,0.7,0.9,1.3l0,0c-0.1,0.5-0.6,0.9-1.1,0.9l0,0C526.5,201.7,526.4,201.7,526.4,201.7z
					 M519.9,200.5c-0.6-0.1-1-0.7-0.9-1.3l0,0c0.1-0.6,0.7-1,1.3-0.9l0,0c0.6,0.1,1,0.7,0.9,1.3l0,0c-0.1,0.5-0.6,0.9-1.1,0.9l0,0
					C520,200.5,520,200.5,519.9,200.5z M513.4,199.4L513.4,199.4L513.4,199.4c-0.6-0.1-1-0.7-0.9-1.3l0,0c0.1-0.6,0.7-1,1.3-0.9l0,0
					c0.6,0.1,1,0.6,0.9,1.3l0,0c-0.1,0.5-0.5,0.9-1.1,0.9l0,0C513.5,199.4,513.5,199.4,513.4,199.4z M506.9,198.5
					c-0.6-0.1-1-0.6-1-1.2l0,0c0.1-0.6,0.6-1,1.2-1l0,0c0.6,0.1,1,0.6,1,1.2l0,0c-0.1,0.6-0.5,1-1.1,1l0,0
					C507,198.5,506.9,198.5,506.9,198.5z M500.4,197.7L500.4,197.7L500.4,197.7c-0.6-0.1-1-0.6-1-1.2l0,0c0.1-0.6,0.6-1,1.2-1l0,0
					c0.6,0.1,1,0.6,1,1.2l0,0c-0.1,0.6-0.5,1-1.1,1l0,0C500.4,197.7,500.4,197.7,500.4,197.7z M493.8,197.1c-0.6-0.1-1.1-0.6-1-1.2
					l0,0c0-0.6,0.6-1.1,1.2-1l0,0c0.6,0,1.1,0.6,1,1.2l0,0C495,196.7,494.5,197.1,493.8,197.1L493.8,197.1
					C493.9,197.1,493.9,197.1,493.8,197.1z M487.3,196.6L487.3,196.6L487.3,196.6c-0.6,0-1.1-0.6-1-1.2l0,0c0-0.6,0.6-1.1,1.2-1l0,0
					c0.6,0,1.1,0.6,1,1.2l0,0C488.4,196.2,487.9,196.6,487.3,196.6L487.3,196.6C487.3,196.6,487.3,196.6,487.3,196.6z M480.7,196.3
					c-0.6,0-1.1-0.5-1.1-1.1l0,0c0-0.6,0.5-1.1,1.1-1.1l0,0c0.6,0,1.1,0.5,1.1,1.1l0,0C481.8,195.8,481.3,196.3,480.7,196.3
					L480.7,196.3C480.7,196.3,480.7,196.3,480.7,196.3z M474.1,196.1c-0.6,0-1.1-0.5-1.1-1.1l0,0c0-0.6,0.5-1.1,1.1-1.1l0,0
					c0.6,0,1.1,0.5,1.1,1.1l0,0C475.2,195.6,474.8,196.1,474.1,196.1L474.1,196.1C474.2,196.1,474.1,196.1,474.1,196.1z"/>
				<path class="st0" d="M725,637.9l-1.9-1.1c25.7-44.5,39.3-95.3,39.3-146.9c0-51.7-13.6-102.5-39.3-146.9l1.9-1.1
					c25.9,44.8,39.6,96,39.6,148C764.7,541.9,751,593.1,725,637.9z"/>
			</g>
			
				<ellipse transform="matrix(0.1602 -0.9871 0.9871 0.1602 201.1632 626.3001)" class="st0" cx="468.6" cy="194.9" rx="9.2" ry="9.2"/>
			<circle class="st0" cx="213.2" cy="342.4" r="8.9"/>
			<path class="st0" d="M719.8,653.6c-5.1,0-9.2-4.1-9.2-9.2c0-5.1,4.1-9.2,9.2-9.2c5.1,0,9.2,4.1,9.2,9.2
				C729,649.5,724.8,653.6,719.8,653.6z M719.8,636.3c-4.5,0-8.1,3.6-8.1,8.1s3.6,8.1,8.1,8.1c4.5,0,8.1-3.6,8.1-8.1
				S724.2,636.3,719.8,636.3z"/>
			<circle class="st0" cx="730.9" cy="624.8" r="4"/>
			<path class="st0" d="M741.7,609.6c0,1.9-1.6,3.5-3.5,3.5c-1.9,0-3.5-1.6-3.5-3.5c0-1.9,1.6-3.5,3.5-3.5
				C740.2,606.1,741.7,607.6,741.7,609.6z"/>
			<circle class="st0" cx="213.2" cy="637.3" r="8.1"/>
		</g>
		<radialGradient id="SVGID_1_" cx="294.5988" cy="331.9062" r="496.3627" gradientUnits="userSpaceOnUse">
			<stop  offset="0" style="stop-color:#EB3F62"/>
			<stop  offset="0.1683" style="stop-color:#E23B5C"/>
			<stop  offset="0.4482" style="stop-color:#C8304C"/>
			<stop  offset="0.803" style="stop-color:#9F1E33"/>
			<stop  offset="1" style="stop-color:#851323"/>
		</radialGradient>
		<circle class="st1" cx="468.9" cy="497" r="254.8"/>
		
			<image style="overflow:visible;opacity:0.43;" width="2105" height="2096" xlink:href="DB86D88.png"  transform="matrix(0.24 0 0 0.24 266.6292 307.5496)">
		</image>
		<radialGradient id="SVGID_2_" cx="316.3198" cy="346.7307" r="422.184" gradientUnits="userSpaceOnUse">
			<stop  offset="0" style="stop-color:#FFFFFF"/>
			<stop  offset="0.4088" style="stop-color:#FDFDFD"/>
			<stop  offset="0.6099" style="stop-color:#F5F6F7"/>
			<stop  offset="0.7657" style="stop-color:#E8EBEC"/>
			<stop  offset="0.8974" style="stop-color:#D6DADD"/>
			<stop  offset="1" style="stop-color:#C1C8CC"/>
		</radialGradient>
		<circle class="st2" cx="468.9" cy="497" r="207.5"/>
		<radialGradient id="SVGID_3_" cx="355.7827" cy="378.6848" r="326.2164" gradientUnits="userSpaceOnUse">
			<stop  offset="0" style="stop-color:#EB3F62"/>
			<stop  offset="0.1683" style="stop-color:#E23B5C"/>
			<stop  offset="0.4482" style="stop-color:#C8304C"/>
			<stop  offset="0.803" style="stop-color:#9F1E33"/>
			<stop  offset="1" style="stop-color:#851323"/>
		</radialGradient>
		<circle class="st3" cx="468.9" cy="497" r="164.1"/>
		<radialGradient id="SVGID_4_" cx="381.0754" cy="416.6237" r="240.4238" gradientUnits="userSpaceOnUse">
			<stop  offset="0" style="stop-color:#FFFFFF"/>
			<stop  offset="0.4088" style="stop-color:#FDFDFD"/>
			<stop  offset="0.6099" style="stop-color:#F5F6F7"/>
			<stop  offset="0.7657" style="stop-color:#E8EBEC"/>
			<stop  offset="0.8974" style="stop-color:#D6DADD"/>
			<stop  offset="1" style="stop-color:#C1C8CC"/>
		</radialGradient>
		<circle class="st4" cx="468.9" cy="497" r="123.2"/>
		<radialGradient id="SVGID_5_" cx="429.3359" cy="456.477" r="127.1202" gradientUnits="userSpaceOnUse">
			<stop  offset="0" style="stop-color:#EB3F62"/>
			<stop  offset="0.1683" style="stop-color:#E23B5C"/>
			<stop  offset="0.4482" style="stop-color:#C8304C"/>
			<stop  offset="0.803" style="stop-color:#9F1E33"/>
			<stop  offset="1" style="stop-color:#851323"/>
		</radialGradient>
		<circle class="st5" cx="468.9" cy="497" r="70.9"/>
		<g>
			<g>
				<path class="st6" d="M439.7,526.9c-0.1,0-0.2,0-0.3,0c-0.1,0-0.2,0-0.3-0.1c-0.1,0-0.2-0.1-0.2-0.1c-0.1,0-0.1-0.1-0.2-0.2
					c-0.3-0.3-0.4-0.6-0.4-1c0-0.1,0-0.2,0-0.3c0-0.1,0-0.2,0.1-0.3c0-0.1,0.1-0.2,0.1-0.2c0-0.1,0.1-0.1,0.2-0.2
					c0.1-0.1,0.1-0.1,0.2-0.2c0.1,0,0.2-0.1,0.2-0.1c0.1,0,0.2-0.1,0.3-0.1c0.4-0.1,0.9,0.1,1.2,0.4c0.1,0.1,0.1,0.1,0.2,0.2
					c0,0.1,0.1,0.2,0.1,0.2c0,0.1,0.1,0.2,0.1,0.3c0,0.1,0,0.2,0,0.3c0,0.4-0.1,0.7-0.4,1C440.5,526.8,440.1,526.9,439.7,526.9z"/>
				<path class="st6" d="M442.9,522.4c-0.5-0.5-0.5-1.4,0-1.9l0,0c0.5-0.5,1.4-0.5,1.9,0l0,0c0.5,0.5,0.5,1.4,0,1.9l0,0
					c-0.3,0.3-0.6,0.4-1,0.4l0,0C443.6,522.8,443.2,522.6,442.9,522.4z M447.1,518.2c-0.5-0.5-0.5-1.4,0-1.9l0,0
					c0.5-0.5,1.4-0.5,1.9,0l0,0c0.5,0.5,0.5,1.4,0,1.9l0,0c-0.3,0.3-0.6,0.4-1,0.4l0,0C447.7,518.6,447.4,518.5,447.1,518.2z
					 M451.3,514c-0.5-0.5-0.5-1.4,0-1.9l0,0c0.5-0.5,1.4-0.5,1.9,0l0,0c0.5,0.5,0.5,1.4,0,1.9l0,0c-0.3,0.3-0.6,0.4-1,0.4l0,0
					C451.9,514.4,451.5,514.3,451.3,514z M455.4,509.9c-0.5-0.5-0.5-1.4,0-1.9l0,0c0.5-0.5,1.4-0.5,1.9,0l0,0c0.5,0.5,0.5,1.4,0,1.9
					l0,0c-0.3,0.3-0.6,0.4-1,0.4l0,0C456,510.3,455.7,510.1,455.4,509.9z M459.6,505.7c-0.5-0.5-0.5-1.4,0-1.9l0,0
					c0.5-0.5,1.4-0.5,1.9,0l0,0c0.5,0.5,0.5,1.4,0,1.9l0,0c-0.3,0.3-0.6,0.4-1,0.4l0,0C460.2,506.1,459.9,506,459.6,505.7z
					 M463.8,501.5c-0.5-0.5-0.5-1.4,0-1.9l0,0c0.5-0.5,1.4-0.5,1.9,0l0,0c0.5,0.5,0.5,1.4,0,1.9l0,0c-0.3,0.3-0.6,0.4-1,0.4l0,0
					C464.4,502,464,501.8,463.8,501.5z M467.9,497.4c-0.5-0.5-0.5-1.4,0-1.9l0,0c0.5-0.5,1.4-0.5,1.9,0l0,0c0.5,0.5,0.5,1.4,0,1.9
					l0,0c-0.3,0.3-0.6,0.4-1,0.4l0,0C468.5,497.8,468.2,497.6,467.9,497.4z M472.1,493.2c-0.5-0.5-0.5-1.4,0-1.9l0,0
					c0.5-0.5,1.4-0.5,1.9,0l0,0c0.5,0.5,0.5,1.4,0,1.9l0,0c-0.3,0.3-0.6,0.4-1,0.4l0,0C472.7,493.6,472.4,493.5,472.1,493.2z
					 M476.3,489.1c-0.5-0.5-0.5-1.4,0-1.9l0,0c0.5-0.5,1.4-0.5,1.9,0l0,0c0.5,0.5,0.5,1.4,0,1.9l0,0c-0.3,0.3-0.6,0.4-1,0.4l0,0
					C476.9,489.5,476.5,489.3,476.3,489.1z M480.4,484.9c-0.5-0.5-0.5-1.4,0-1.9l0,0c0.5-0.5,1.4-0.5,1.9,0l0,0
					c0.5,0.5,0.5,1.4,0,1.9l0,0c-0.3,0.3-0.6,0.4-1,0.4l0,0C481,485.3,480.7,485.2,480.4,484.9z M484.6,480.7
					c-0.5-0.5-0.5-1.4,0-1.9l0,0c0.5-0.5,1.4-0.5,1.9,0l0,0c0.5,0.5,0.5,1.4,0,1.9l0,0c-0.3,0.3-0.6,0.4-1,0.4l0,0
					C485.2,481.1,484.8,481,484.6,480.7z M488.7,476.6c-0.5-0.5-0.5-1.4,0-1.9l0,0c0.5-0.5,1.4-0.5,1.9,0l0,0c0.5,0.5,0.5,1.4,0,1.9
					l0,0c-0.3,0.3-0.6,0.4-1,0.4l0,0C489.4,477,489,476.8,488.7,476.6z M492.9,472.4c-0.5-0.5-0.5-1.4,0-1.9l0,0
					c0.5-0.5,1.4-0.5,1.9,0l0,0c0.5,0.5,0.5,1.4,0,1.9l0,0c-0.3,0.3-0.6,0.4-1,0.4l0,0C493.5,472.8,493.2,472.7,492.9,472.4z"/>
				<path class="st6" d="M498,468.6c-0.4,0-0.7-0.1-1-0.4c-0.1-0.1-0.1-0.1-0.2-0.2c0-0.1-0.1-0.2-0.1-0.2c0-0.1-0.1-0.2-0.1-0.3
					c0-0.1,0-0.2,0-0.3c0-0.1,0-0.2,0-0.3c0-0.1,0-0.2,0.1-0.3c0-0.1,0.1-0.2,0.1-0.2c0-0.1,0.1-0.1,0.2-0.2
					c0.1-0.1,0.1-0.1,0.2-0.2c0.1,0,0.2-0.1,0.2-0.1c0.1,0,0.2-0.1,0.3-0.1c0.2,0,0.4,0,0.5,0c0.1,0,0.2,0,0.3,0.1
					c0.1,0,0.2,0.1,0.2,0.1c0.1,0,0.1,0.1,0.2,0.2c0.1,0.1,0.1,0.1,0.2,0.2c0,0.1,0.1,0.2,0.1,0.2c0,0.1,0.1,0.2,0.1,0.3
					c0,0.1,0,0.2,0,0.3c0,0.1,0,0.2,0,0.3c0,0.1,0,0.2-0.1,0.3c0,0.1-0.1,0.2-0.1,0.2c-0.1,0.1-0.1,0.1-0.2,0.2
					c-0.1,0.1-0.1,0.1-0.2,0.2c-0.1,0-0.2,0.1-0.2,0.1c-0.1,0-0.2,0.1-0.3,0.1C498.2,468.6,498.1,468.6,498,468.6z"/>
			</g>
			<g>
				<path class="st6" d="M439.7,468.6c-0.4,0-0.7-0.1-1-0.4c-0.1-0.1-0.1-0.1-0.2-0.2c0-0.1-0.1-0.2-0.1-0.2c0-0.1-0.1-0.2-0.1-0.3
					c0-0.1,0-0.2,0-0.3c0-0.1,0-0.2,0-0.3c0-0.1,0-0.2,0.1-0.3c0-0.1,0.1-0.2,0.1-0.2c0-0.1,0.1-0.1,0.2-0.2
					c0.1-0.1,0.1-0.1,0.2-0.2c0.1,0,0.2-0.1,0.2-0.1c0.1,0,0.2-0.1,0.3-0.1c0.5-0.1,0.9,0.1,1.2,0.4c0.1,0.1,0.1,0.1,0.2,0.2
					c0,0.1,0.1,0.2,0.1,0.2c0,0.1,0.1,0.2,0.1,0.3c0,0.1,0,0.2,0,0.3c0,0.1,0,0.2,0,0.3c0,0.1,0,0.2-0.1,0.3c0,0.1-0.1,0.2-0.1,0.2
					c0,0.1-0.1,0.1-0.2,0.2C440.5,468.5,440.1,468.6,439.7,468.6z"/>
				<path class="st6" d="M492.9,522.4c-0.5-0.5-0.5-1.4,0-1.9l0,0c0.5-0.5,1.4-0.5,1.9,0l0,0c0.5,0.5,0.5,1.4,0,1.9l0,0
					c-0.3,0.3-0.6,0.4-1,0.4l0,0C493.5,522.8,493.2,522.6,492.9,522.4z M488.7,518.2c-0.5-0.5-0.5-1.4,0-1.9l0,0
					c0.5-0.5,1.4-0.5,1.9,0l0,0c0.5,0.5,0.5,1.4,0,1.9l0,0c-0.3,0.3-0.6,0.4-1,0.4l0,0C489.4,518.6,489,518.5,488.7,518.2z
					 M484.6,514c-0.5-0.5-0.5-1.4,0-1.9l0,0c0.5-0.5,1.4-0.5,1.9,0l0,0c0.5,0.5,0.5,1.4,0,1.9l0,0c-0.3,0.3-0.6,0.4-1,0.4l0,0
					C485.2,514.4,484.8,514.3,484.6,514z M480.4,509.9c-0.5-0.5-0.5-1.4,0-1.9l0,0c0.5-0.5,1.4-0.5,1.9,0l0,0c0.5,0.5,0.5,1.4,0,1.9
					l0,0c-0.3,0.3-0.6,0.4-1,0.4l0,0C481,510.3,480.7,510.1,480.4,509.9z M476.3,505.7c-0.5-0.5-0.5-1.4,0-1.9l0,0
					c0.5-0.5,1.4-0.5,1.9,0l0,0c0.5,0.5,0.5,1.4,0,1.9l0,0c-0.3,0.3-0.6,0.4-1,0.4l0,0C476.9,506.1,476.5,506,476.3,505.7z
					 M472.1,501.5c-0.5-0.5-0.5-1.4,0-1.9l0,0c0.5-0.5,1.4-0.5,1.9,0l0,0c0.5,0.5,0.5,1.4,0,1.9l0,0c-0.3,0.3-0.6,0.4-1,0.4l0,0
					C472.7,502,472.4,501.8,472.1,501.5z M467.9,497.4c-0.5-0.5-0.5-1.4,0-1.9l0,0c0.5-0.5,1.4-0.5,1.9,0l0,0c0.5,0.5,0.5,1.4,0,1.9
					l0,0c-0.3,0.3-0.6,0.4-1,0.4l0,0C468.5,497.8,468.2,497.6,467.9,497.4z M463.8,493.2c-0.5-0.5-0.5-1.4,0-1.9l0,0
					c0.5-0.5,1.4-0.5,1.9,0l0,0c0.5,0.5,0.5,1.4,0,1.9l0,0c-0.3,0.3-0.6,0.4-1,0.4l0,0C464.4,493.6,464,493.5,463.8,493.2z
					 M459.6,489.1c-0.5-0.5-0.5-1.4,0-1.9l0,0c0.5-0.5,1.4-0.5,1.9,0l0,0c0.5,0.5,0.5,1.4,0,1.9l0,0c-0.3,0.3-0.6,0.4-1,0.4l0,0
					C460.2,489.5,459.9,489.3,459.6,489.1z M455.4,484.9c-0.5-0.5-0.5-1.4,0-1.9l0,0c0.5-0.5,1.4-0.5,1.9,0l0,0
					c0.5,0.5,0.5,1.4,0,1.9l0,0c-0.3,0.3-0.6,0.4-1,0.4l0,0C456,485.3,455.7,485.2,455.4,484.9z M451.3,480.7
					c-0.5-0.5-0.5-1.4,0-1.9l0,0c0.5-0.5,1.4-0.5,1.9,0l0,0c0.5,0.5,0.5,1.4,0,1.9l0,0c-0.3,0.3-0.6,0.4-1,0.4l0,0
					C451.9,481.1,451.5,481,451.3,480.7z M447.1,476.6c-0.5-0.5-0.5-1.4,0-1.9l0,0c0.5-0.5,1.4-0.5,1.9,0l0,0c0.5,0.5,0.5,1.4,0,1.9
					l0,0c-0.3,0.3-0.6,0.4-1,0.4l0,0C447.7,477,447.4,476.8,447.1,476.6z M442.9,472.4c-0.5-0.5-0.5-1.4,0-1.9l0,0
					c0.5-0.5,1.4-0.5,1.9,0l0,0c0.5,0.5,0.5,1.4,0,1.9l0,0c-0.3,0.3-0.6,0.4-1,0.4l0,0C443.6,472.8,443.2,472.7,442.9,472.4z"/>
				<path class="st6" d="M498,526.9c-0.4,0-0.7-0.1-1-0.4c-0.3-0.3-0.4-0.6-0.4-1c0-0.1,0-0.2,0-0.3c0-0.1,0-0.2,0.1-0.3
					c0-0.1,0.1-0.2,0.1-0.2c0-0.1,0.1-0.1,0.2-0.2c0.1-0.1,0.1-0.1,0.2-0.2c0.1,0,0.2-0.1,0.2-0.1c0.1,0,0.2-0.1,0.3-0.1
					c0.2,0,0.4,0,0.5,0c0.1,0,0.2,0,0.3,0.1c0.1,0,0.2,0.1,0.2,0.1c0.1,0,0.1,0.1,0.2,0.2c0.1,0.1,0.1,0.1,0.2,0.2
					c0,0.1,0.1,0.2,0.1,0.2c0,0.1,0.1,0.2,0.1,0.3c0,0.1,0,0.2,0,0.3c0,0.4-0.1,0.7-0.4,1c-0.1,0.1-0.1,0.1-0.2,0.2
					c-0.1,0-0.2,0.1-0.2,0.1c-0.1,0-0.2,0.1-0.3,0.1C498.2,526.9,498.1,526.9,498,526.9z"/>
			</g>
		</g>
	</g>
</g>
</svg>
