<svg width="157" height="129" viewBox="0 0 157 129" fill="none" xmlns="http://www.w3.org/2000/svg">
<path d="M88.2969 101.989L48.3247 124.834C46.0963 126.088 43.5893 127.063 40.8038 127.62C24.7871 130.684 7.23835 118.287 1.66732 99.8996C-1.1182 90.7059 -0.282555 81.6515 3.19934 74.6866C5.42775 70.0897 8.90965 66.1894 13.3665 63.682L53.3386 40.8371C48.8818 43.3445 45.3999 47.2448 43.1715 51.8417C39.6896 58.9459 38.9932 67.861 41.6395 77.0547C47.0712 95.442 64.62 107.84 80.776 104.775C83.4222 104.218 85.9292 103.243 88.2969 101.989Z" fill="#8F8A0E"/>
<path d="M60.8595 38.0512C68.9375 36.5189 77.2941 38.7477 84.3971 43.7624C91.5002 48.7771 97.2105 56.4385 99.996 65.6322C102.782 74.8259 101.946 83.8803 98.464 90.8452C94.9821 97.9494 88.854 103.103 80.776 104.636C64.7592 107.7 47.2105 95.3027 41.6395 76.9154C38.8539 67.7217 39.6896 58.6673 43.1715 51.7024C46.6534 44.7375 52.7815 39.5834 60.8595 38.0512Z" fill="#F1E31C"/>
<path d="M126.18 79.4227L86.2077 102.268C90.2467 99.8996 93.45 96.4171 95.5392 92.2382L135.511 69.3933C133.422 73.5722 130.219 77.0547 126.18 79.4227Z" fill="#755C41"/>
<path d="M135.511 69.3933L95.5392 92.2382C98.7425 85.8305 99.4389 77.6118 96.932 69.1146C94.425 60.6175 89.1325 53.6525 82.7258 49.0557C76.3191 44.4589 68.5197 42.3694 61.1381 43.7624C58.6311 44.1803 56.4027 45.1554 54.3136 46.2697L94.2857 23.4248C96.3748 22.1711 98.6033 21.3353 101.11 20.9174C108.492 19.5245 116.152 21.614 122.698 26.2108C129.244 30.8076 134.397 37.9118 136.904 46.2697C139.411 54.6276 138.715 62.8462 135.511 69.3933Z" fill="#755C41"/>
<path d="M136.765 97.8101L96.7927 120.655C93.3108 122.605 89.5503 123.998 85.372 124.834C60.9988 129.57 34.3971 110.765 26.0406 82.7659C21.8623 68.8361 22.9765 55.1849 28.269 44.4589C31.7509 37.3547 37.0433 31.5042 43.7286 27.7431L83.7008 4.89818C77.0155 8.65923 71.723 14.5098 68.2411 21.614C62.9487 32.3399 61.8344 45.9912 66.0127 59.921C74.3693 87.9199 100.971 106.725 125.344 101.989C129.522 101.293 133.283 99.7603 136.765 97.8101Z" fill="#755C41"/>
<path d="M130.776 9.49501C141.5 17.1564 150.275 28.8575 154.453 42.7873C158.631 56.7171 157.517 70.3683 152.224 81.0943C146.932 91.8203 137.6 99.621 125.344 101.989C100.971 106.725 74.3693 87.9199 66.0127 59.9209C61.8344 45.9911 62.9486 32.3399 68.2411 21.6139C73.5336 10.888 82.8651 3.08726 95.1213 0.719194C107.378 -1.64888 120.052 1.9729 130.776 9.49501ZM135.511 69.3933C138.715 62.9855 139.411 54.7669 136.904 46.2697C134.397 37.7725 129.105 30.8076 122.698 26.2108C116.291 21.614 108.492 19.5245 101.11 20.9174C93.7286 22.3104 88.1576 27.0466 84.9542 33.5936C81.7509 40.0013 81.0545 48.2199 83.5615 56.7171C88.5754 73.5722 104.592 84.9947 119.355 82.0694C126.737 80.5371 132.308 75.801 135.511 69.3933Z" fill="#BD946C"/>
<g opacity="0.18">
<g opacity="0.18">
<g opacity="0.18">
<path opacity="0.18" d="M100.414 19.9424C107.795 18.5494 115.595 20.6389 122.002 25.2357C128.547 29.8325 133.701 36.9368 136.208 45.2947C138.715 53.7919 137.879 62.0105 134.676 68.4182C131.472 74.9652 125.762 79.7014 118.38 81.0943C103.617 84.0196 87.4611 72.5971 82.5865 55.742C80.0795 47.2448 80.9152 39.0263 84.1185 32.6185C87.1826 26.0715 92.8929 21.3354 100.414 19.9424Z" fill="#6FCADA"/>
</g>
</g>
</g>
</svg>
