<svg width="75" height="98" viewBox="0 0 75 98" fill="none" xmlns="http://www.w3.org/2000/svg">
<path d="M3.32482 21.7509C1.85825 46.8739 35.4348 45.3809 52.0559 45.767C53.5224 50.5805 49.097 55.3683 49.4829 60.1818C54.6545 60.1818 58.7197 45.175 60.212 57.0157C60.9582 63.2965 58.1022 60.1818 54.423 61.6491C51.1039 63.1163 51.6957 66.4626 49.1227 69.8089C55.7609 72.3829 66.8501 60.2076 69.0628 54.6733C70.5294 51.3528 72.0217 46.1789 71.6358 42.4722C70.8896 38.4052 68.3167 36.5518 67.9565 32.8709C66.4899 23.2696 69.4231 15.5217 56.893 11.4546C49.1485 9.24092 41.018 11.815 33.2736 8.13407C28.4622 6.28074 25.8893 2.96018 22.1843 0C18.505 3.32055 21.8241 5.53426 24.0368 8.85481C22.1843 8.10833 17.0127 2.2137 15.186 3.32055C12.9732 4.78777 17.3987 10.7081 18.1448 12.1754C13.7194 13.2822 13.3335 5.53426 8.90805 6.255C2.63013 7.36185 9.65419 13.2822 9.26825 15.8563C9.26825 23.2439 4.4569 11.4289 1.13784 14.003C-1.82102 16.2167 1.88398 17.6839 2.24419 19.5372" fill="#778692"/>
<path d="M10.4775 39.6665C10.246 43.2187 9.67992 46.7194 9.13961 50.2459C8.67648 53.2833 8.00752 56.6039 8.49638 59.667C9.31971 65.0726 13.0247 69.4228 17.2443 72.6404C19.2255 74.1591 21.5668 74.9056 24.0111 74.9571C26.584 75.0343 29.1312 74.3908 31.7041 74.2878C34.5086 74.1591 37.0815 74.6224 38.8568 76.9648C40.2977 78.8439 40.8894 81.2893 41.4812 83.5545C41.6099 84.0435 42.356 83.8376 42.2274 83.3485C41.2497 79.5132 39.886 75.0343 35.615 73.7987C30.5978 72.3572 25.3747 75.3174 20.3833 73.5156C17.6045 72.5117 15.2374 70.1435 13.3335 67.9556C11.4038 65.7419 9.96294 63.0906 9.34544 60.2076C8.65075 56.9128 9.44837 53.2319 9.93722 49.937C10.4518 46.5135 10.9921 43.09 11.2237 39.6407C11.2751 39.1517 10.5033 39.1517 10.4775 39.6665Z" fill="black"/>
<path d="M56.4041 55.1881C56.5585 54.3902 56.9187 53.0259 57.9221 53.8239C58.8741 54.5704 59.4402 55.8831 59.8004 57.0157C60.1349 58.0711 60.4179 59.4611 59.8261 60.4907C59.0028 61.9322 56.5842 60.8768 55.5293 60.3877C55.0919 60.1818 54.6802 60.8511 55.1434 61.057C56.6099 61.7263 59.08 62.7044 60.3407 61.1342C61.3184 59.9244 60.9325 58.0454 60.5208 56.7068C60.0834 55.3683 59.3373 53.7209 58.0508 53.0002C56.6357 52.2022 55.8895 53.9011 55.6837 55.0079C55.5807 55.4455 56.3012 55.6772 56.4041 55.1881Z" fill="black"/>
<path d="M19.9716 53.8239C19.1997 55.6257 17.9904 57.1702 16.8069 58.7404C16.6525 58.9463 16.8326 59.2294 17.0385 59.3067C18.1191 59.667 19.1482 59.9759 20.2803 60.0274C20.7691 60.0531 20.7691 59.2809 20.2803 59.2552C19.2254 59.2037 18.222 58.8948 17.2186 58.5602C17.2958 58.7404 17.3729 58.9463 17.4501 59.1265C18.6336 57.582 19.8429 56.0376 20.6148 54.21C20.8463 53.7724 20.1774 53.3606 19.9716 53.8239Z" fill="black"/>
<path d="M35.7436 62.9361C33.8653 66.4111 28.7967 67.0804 25.8378 64.6093C25.4519 64.3004 24.9116 64.8409 25.2975 65.1498C28.6166 67.9298 34.3027 67.2606 36.4125 63.3222C36.6441 62.8846 35.9751 62.4985 35.7436 62.9361Z" fill="black"/>
<path d="M32.7332 52.2537C34.6887 53.3606 37.0557 53.6952 39.0884 52.6141C39.5258 52.3824 39.1398 51.7132 38.7024 51.9448C36.9271 52.923 34.843 52.5626 33.1449 51.5844C32.6818 51.3528 32.2958 51.9963 32.7332 52.2537Z" fill="black"/>
<path d="M12.6902 49.0361C13.9767 50.6063 16.1379 50.8637 17.9647 50.1944C18.4278 50.0143 18.222 49.2678 17.7589 49.448C16.1637 50.04 14.3626 49.8855 13.2306 48.4955C12.9218 48.1094 12.3815 48.65 12.6902 49.0361Z" fill="black"/>
<path d="M54.1142 63.1163C47.2445 64.1717 48.145 74.365 51.85 78.2261C52.1845 78.5865 52.7505 78.0459 52.3903 77.6856C49.0455 74.2106 48.0678 64.8409 54.32 63.8885C54.8089 63.7856 54.603 63.0391 54.1142 63.1163Z" fill="black"/>
<path d="M40.5549 81.6239C35.8208 78.4578 33.4537 87.673 29.2598 90.0411C34.2513 90.8391 34.2513 95.8328 38.4451 90.5559C40.2719 88.1878 42.1244 84.7643 41.0695 82.1387" fill="#7ADED4"/>
<path d="M51.0524 77.1707C52.1073 75.858 54.7316 80.3368 49.9975 83.7346C47.3731 85.5622 43.4366 86.3602 41.0695 88.7283C38.1878 91.6113 40.2719 93.4646 40.0146 97.403C42.8963 96.8882 45.0061 93.4646 47.3731 91.8945C49.7402 90.5817 52.8792 89.7837 54.9889 87.6987C59.7231 83.2198 56.8157 77.7113 51.8242 75.8837" fill="#7ADED4"/>
<path d="M56.6871 84.095C62.1931 82.4476 68.6512 84.4554 73.8227 86.4631C74.2858 86.6433 74.4917 85.8968 74.0286 85.7167C68.7284 83.6832 62.1417 81.6754 56.4813 83.3485C55.9924 83.503 56.1982 84.2494 56.6871 84.095Z" fill="black"/>
<path d="M36.078 82.5505C31.1895 82.808 26.2495 82.3704 21.5411 83.8891C21.0779 84.0435 21.258 84.79 21.7469 84.6356C26.4039 83.1426 31.2667 83.5802 36.1038 83.3228C36.5926 83.297 36.5926 82.5248 36.078 82.5505Z" fill="black"/>
<path d="M66.6443 36.8093C68.6255 34.8015 70.5037 32.562 70.9925 29.6791C71.0697 29.19 70.3236 28.9841 70.2464 29.4732C69.7833 32.2017 68.008 34.3382 66.104 36.243C65.7438 36.6033 66.2841 37.1439 66.6443 36.8093Z" fill="black"/>
<path d="M68.188 39.1259C69.526 37.8646 71.2755 37.2726 73.0251 36.9122C73.514 36.8093 73.3082 36.0628 72.8193 36.1657C70.9411 36.5776 69.0628 37.2468 67.622 38.5854C67.2618 38.92 67.8278 39.4605 68.188 39.1259Z" fill="black"/>
<path d="M55.7609 58.8691C56.4813 58.483 56.79 57.6593 57.5877 57.3761C57.4333 57.2474 57.2532 57.1187 57.0988 57.0158C57.0988 57.2474 57.0731 57.4791 57.0216 57.7107C56.9959 57.7622 56.893 57.8909 56.9701 57.8652C56.9701 57.8652 56.9959 57.8652 57.0216 57.8909C57.0473 57.9167 57.0473 57.9424 57.0216 57.9167C57.0473 57.9682 57.0216 58.0196 56.9959 58.0711C57.3304 57.7108 56.79 57.1445 56.4556 57.5306C56.1211 57.9167 56.3012 58.5602 56.8415 58.6632C57.7163 58.8176 57.8964 57.6593 57.8964 57.0415C57.8964 56.8098 57.6391 56.5781 57.4076 56.6811C56.9444 56.8356 56.5585 57.0672 56.224 57.4276C55.941 57.7365 55.7351 58.0711 55.3749 58.2513C54.9375 58.4315 55.3235 59.1008 55.7609 58.8691Z" fill="black"/>
<path d="M52.0301 47.5431C53.0593 46.2046 54.3972 45.072 56.0438 44.6344C56.5327 44.5057 56.3268 43.7593 55.838 43.888C53.9855 44.4028 52.519 45.6641 51.3612 47.157C51.0524 47.5431 51.7471 47.9293 52.0301 47.5431Z" fill="black"/>
<path d="M43.0506 19.7689C35.3062 15.1613 29.0025 29.4474 38.1878 31.97C41.3525 32.7937 44.3885 32.0215 45.9323 29.0613C47.0387 26.7704 47.9392 23.3726 46.3182 21.1332C45.958 20.5154 45.1862 20.052 44.6716 19.5372" fill="#EEDA23"/>
<path d="M38.1106 25.6635C38.0849 25.612 38.0849 25.5863 38.0592 25.5348C37.9563 25.2002 37.5446 25.1487 37.3645 25.4319C37.2616 25.612 37.2101 25.7922 37.1587 25.9981C37.0557 26.3585 37.5446 26.6674 37.8019 26.3843C38.0077 26.1526 38.1364 25.9209 38.2907 25.6378C38.5223 25.2259 38.0077 24.8913 37.6732 25.1744C37.416 25.3804 37.2616 25.612 37.0557 25.8952C36.7727 26.307 37.4417 26.6674 37.7247 26.2813C37.5961 26.4357 38.1878 26.1783 38.3165 26.0496C38.0849 25.9724 37.8276 25.9209 37.5961 25.8437C37.4417 27.6198 37.5189 29.4989 36.9528 31.1978C36.5926 32.2789 36.078 33.3085 35.6921 34.3896C35.2032 35.7796 34.5858 38.328 36.8242 38.4824C38.4966 38.5854 39.217 35.548 39.5772 34.4154C39.9117 33.3343 40.1947 32.3304 40.8122 31.3522C41.7899 29.8335 43.1278 28.6237 43.8997 26.9506C44.0026 26.7189 43.9254 26.4615 43.6681 26.3843C43.6167 26.3843 43.5909 26.3585 43.5395 26.3585C43.3079 26.307 43.0249 26.4615 43.0506 26.7189C43.0506 26.8476 42.8963 27.002 42.8191 27.105C42.639 27.3624 42.8963 27.6713 43.1535 27.697C43.4366 27.7228 43.6939 27.697 43.9254 27.5426C44.0283 27.4911 44.1313 27.3367 44.1055 27.208C44.1055 27.1565 44.1055 27.105 44.1055 27.0535C44.1055 26.9248 44.0283 26.7704 43.9254 26.7189C43.6424 26.5902 43.4366 26.4872 43.1535 26.5644C42.6647 26.6932 42.8705 27.4396 43.3594 27.3109C44.157 27.105 43.1278 26.9248 43.1535 26.9248C43.2565 27.1307 43.3851 27.3109 43.488 27.5169C43.6424 27.2852 43.8482 27.0535 43.8225 26.7446C43.6681 26.8733 43.488 27.002 43.3337 27.105C43.3851 27.105 43.4108 27.1307 43.4623 27.1307C43.3851 26.9506 43.3079 26.7446 43.2307 26.5644C42.1758 28.8554 40.0918 30.4513 39.2427 32.8709C38.7024 34.3639 38.5223 36.14 37.416 37.3756C37.1072 37.7359 36.7727 37.7617 36.3868 37.5557C35.795 37.2211 35.9494 36.5261 36.0523 35.9598C36.2581 34.9302 36.6955 33.9263 37.0815 32.9482C38.0335 30.6057 38.1364 28.3406 38.3679 25.8437C38.4194 25.4061 37.8533 25.3804 37.6475 25.6378C37.7762 25.4833 37.1844 25.715 37.0557 25.8694C37.2873 25.9981 37.4931 26.1269 37.7247 26.2556C37.8534 26.0496 38.0334 25.8694 38.2136 25.6893C38.0077 25.5348 37.8019 25.3804 37.5961 25.2259C37.4931 25.4319 37.3645 25.6378 37.2358 25.818C37.4417 25.9467 37.6732 26.0754 37.8791 26.2041C37.9048 26.0754 37.9563 25.9467 38.0077 25.8437C37.7762 25.818 37.5446 25.7922 37.313 25.7407C37.3388 25.7922 37.3388 25.818 37.3645 25.8694C37.5189 26.3585 38.265 26.1526 38.1106 25.6635Z" fill="black"/>
<path d="M36.5926 34.158C37.416 34.3639 38.3679 34.5956 39.1913 34.3896C39.6801 34.2609 39.4743 33.5144 38.9855 33.6432C38.2908 33.8233 37.4674 33.5917 36.7985 33.4115C36.3096 33.2828 36.1038 34.0293 36.5926 34.158Z" fill="black"/>
<path d="M36.3353 36.1658C37.3902 36.6034 38.4194 37.041 39.5258 36.5004C39.9632 36.2687 39.5772 35.5995 39.1398 35.8311C38.2908 36.2687 37.3645 35.7539 36.5412 35.4193C36.078 35.2391 35.8722 35.9856 36.3353 36.1658Z" fill="black"/>
<path d="M29.62 29.6276C30.0574 29.7306 30.5463 29.7306 31.0094 29.7048C31.4983 29.6791 31.4983 28.9069 31.0094 28.9326C30.6235 28.9583 30.2118 28.9583 29.8259 28.8811C29.337 28.7782 29.1312 29.4989 29.62 29.6276Z" fill="black"/>
<path d="M30.289 21.8539C30.7521 21.7252 31.2924 21.9311 31.7298 22.137C32.1672 22.343 32.5789 21.6737 32.1158 21.4678C31.4983 21.1846 30.7779 20.9015 30.0831 21.1074C29.5943 21.2361 29.8001 21.9826 30.289 21.8539Z" fill="black"/>
<path d="M36.747 13.5911C36.6441 14.2346 36.9271 14.9554 37.0558 15.5731C37.1587 16.0622 37.9048 15.8563 37.8019 15.3672C37.7247 15.0583 37.6733 14.7752 37.5961 14.4663C37.5446 14.2861 37.4674 13.9257 37.4932 13.797C37.5961 13.308 36.8499 13.102 36.747 13.5911Z" fill="black"/>
<path d="M44.543 14.106C44.3114 14.4921 44.1827 14.9296 44.0798 15.3672C43.9512 15.8563 44.6974 16.0622 44.826 15.5731C44.929 15.187 45.0061 14.8267 45.212 14.4921C45.4693 14.0545 44.8003 13.6684 44.543 14.106Z" fill="black"/>
<path d="M51.7213 17.5552C51.2325 18.0443 50.7436 18.5076 50.1519 18.868C49.7145 19.1254 50.1262 19.7946 50.5378 19.5372C51.181 19.1511 51.7213 18.6106 52.2616 18.0957C52.6218 17.7354 52.0558 17.1948 51.7213 17.5552Z" fill="black"/>
<path d="M50.5893 25.7407C50.9752 25.9724 51.4127 26.1011 51.8758 26.2041C52.3647 26.3328 52.5705 25.5863 52.0816 25.4576C51.6957 25.3546 51.3355 25.2774 51.001 25.0715C50.5636 24.8141 50.1776 25.4833 50.5893 25.7407Z" fill="black"/>
<path d="M48.6596 31.1978C49.1999 31.4809 49.7402 31.7641 50.2291 32.1245C50.6407 32.4076 51.0267 31.7384 50.615 31.4552C50.1261 31.0948 49.5859 30.8117 49.0456 30.5285C48.6082 30.2969 48.2222 30.9661 48.6596 31.1978Z" fill="black"/>
<path d="M45.5978 34.1065C45.8037 34.647 46.1124 35.1361 46.5241 35.5222C46.8843 35.8569 47.4504 35.3163 47.0644 34.9817C46.73 34.6728 46.4727 34.3124 46.3183 33.9006C46.1639 33.4372 45.4177 33.6431 45.5978 34.1065Z" fill="black"/>
<path d="M8.57356 18.1215C9.80856 19.3055 11.2494 20.2322 12.7674 21.0044C13.2048 21.2361 13.5907 20.5668 13.1533 20.3352C11.6868 19.5887 10.2974 18.7135 9.11388 17.5552C8.75367 17.2206 8.21335 17.7611 8.57356 18.1215Z" fill="black"/>
<path d="M17.3215 11.9437C18.1705 13.0248 19.2769 13.9515 20.4862 14.5692C20.9236 14.8009 21.3095 14.1316 20.8721 13.9C19.7143 13.3079 18.6594 12.4328 17.8618 11.3774C17.5531 10.9913 17.0127 11.5576 17.3215 11.9437Z" fill="black"/>
<path d="M23.6766 7.92815C25.1431 8.28853 26.2752 9.42113 27.7933 9.73002C28.2821 9.83298 28.488 9.08649 27.9991 8.98352C26.5068 8.67463 25.3747 7.54203 23.8824 7.18166C23.3935 7.05296 23.1877 7.79945 23.6766 7.92815Z" fill="black"/>
</svg>
