<svg width="102" height="148" viewBox="0 0 102 148" fill="none" xmlns="http://www.w3.org/2000/svg">
<path d="M69.031 108.171C61.531 110.984 53.5435 114.284 46.981 118.971C46.0435 122.721 44.6185 126.021 44.1685 129.771C49.7935 128.346 76.531 115.221 68.0935 108.659" fill="#CFD9E6"/>
<path d="M47.9186 113.796C44.6186 113.309 38.0561 116.609 34.3061 118.971C33.8186 120.396 33.8186 123.659 34.3061 125.084C43.2311 122.721 44.6186 118.971 48.3686 112.896" fill="#CFD9E6"/>
<path d="M44.6186 120.846C42.2561 120.846 35.6935 126.021 32.881 127.896C33.8185 135.397 39.9311 133.522 43.6811 128.834" fill="#7ADED4"/>
<path d="M35.2436 133.034C34.3061 136.334 29.6186 142.409 27.7436 146.646C32.4311 147.584 38.0561 147.134 43.2311 147.134C43.2311 142.896 38.9936 134.459 36.6686 131.196" fill="#7ADED4"/>
<path d="M3.81855 11.984C-6.49395 26.0465 5.69357 45.7715 21.1811 47.6465C31.4936 49.0715 42.2935 47.159 53.0935 49.0715C59.206 50.009 64.3435 50.9465 66.2185 57.9965C67.156 60.359 64.7935 71.1215 66.2185 72.5465C69.9685 73.484 70.456 69.2465 70.906 65.984C70.4185 67.859 70.4185 70.2215 69.9685 72.5465C73.7185 72.059 79.3435 72.5465 77.4685 78.1715C76.0435 82.409 69.9685 80.0465 69.481 87.0965C78.406 79.5965 114.706 52.3715 97.3435 39.209C104.394 31.709 100.381 17.7215 93.331 10.2215C84.406 1.29645 62.5435 -0.728547 50.8435 0.208953C40.981 0.696454 30.106 10.634 20.6935 7.33396C14.131 5.42146 1.45605 -4.40355 3.81855 11.984Z" fill="#141212"/>
<path d="M9.93105 84.2465C12.7436 87.9965 19.3061 82.8215 23.9936 84.2465C25.8686 84.734 27.7436 87.059 30.1061 87.5465C31.9811 88.034 34.7936 87.059 36.6686 88.034C41.8436 90.3965 43.2311 94.1465 39.9686 99.7715C34.3436 109.634 24.9686 113.834 16.9811 104.946C13.2311 100.709 5.73105 89.459 8.99355 84.3215" fill="#262626"/>
<path d="M9.44353 84.2465C6.14353 77.684 8.50603 73.934 13.1935 70.634C18.3685 66.8839 30.0685 68.7589 35.2435 72.0589C43.681 76.7465 41.356 94.559 35.2435 88.484C31.9435 84.734 35.731 79.1089 29.6185 75.3589C27.256 73.4839 18.8185 72.0589 16.006 73.9339C12.256 76.7465 15.0685 82.859 11.3185 84.734" fill="#262626"/>
<path d="M13.5686 42.5089C13.4936 51.3589 10.7186 60.0589 9.44356 68.7589C8.31857 76.4089 8.09357 84.434 13.0811 90.7715C18.5936 97.784 27.1061 100.671 35.8061 100.109C37.6436 99.9964 39.4436 99.6965 41.2436 99.284C42.6311 98.9465 44.1311 98.3465 45.5561 98.5715C47.1686 98.7965 47.9185 100.784 48.406 102.096C49.3435 104.571 49.1935 107.196 48.9685 109.784C48.8185 111.396 48.556 113.009 48.2935 114.584C48.181 115.296 49.2685 115.596 49.381 114.884C50.0185 110.571 50.9561 106.034 49.4936 101.796C48.6686 99.4714 47.3935 97.2965 44.656 97.409C43.381 97.484 42.1435 97.8965 40.9061 98.1965C38.6936 98.759 36.4436 98.984 34.1561 99.059C29.5436 99.209 24.9311 98.234 20.8436 96.0215C16.7936 93.809 13.0811 90.059 11.2811 85.784C9.70607 81.9965 9.66858 77.6839 9.93108 73.6339C10.5311 64.6714 13.2686 56.0464 14.3186 47.1589C14.5061 45.6214 14.6186 44.0464 14.6186 42.4714C14.6936 41.7589 13.5686 41.7589 13.5686 42.5089Z" fill="black"/>
<path d="M71.2811 56.084C70.6061 61.5215 69.8936 66.9965 69.8561 72.5089C69.8561 72.8839 70.3436 73.2589 70.7186 72.9964C72.0686 71.9839 73.8311 70.934 75.5186 71.7215C76.7561 72.284 77.3561 73.6715 77.5811 74.909C77.8436 76.184 77.6186 77.6839 76.7561 78.6964C75.5561 80.1214 73.4561 79.6339 71.9561 78.9964C71.6561 78.8839 71.3561 79.1089 71.2811 79.3714C68.0936 89.6089 68.4686 100.371 67.4936 110.946C67.4186 111.659 68.5436 111.659 68.6186 110.946C69.5936 100.484 69.2186 89.8339 72.3686 79.6714C72.1436 79.7839 71.9186 79.9339 71.6936 80.0464C73.5686 80.7964 75.6311 81.0964 77.2811 79.7464C78.6311 78.6214 78.9686 76.5964 78.7436 74.9464C78.5186 73.2214 77.6561 71.5715 76.0811 70.709C74.0561 69.6215 71.7686 70.7464 70.1561 71.9839C70.4561 72.1339 70.7186 72.3215 71.0186 72.4715C71.0561 66.9965 71.7311 61.484 72.4436 56.0465C72.4811 55.3715 71.3561 55.3715 71.2811 56.084Z" fill="black"/>
<path d="M71.7686 78.0589C72.7436 77.0089 73.3061 75.8089 74.8061 75.3964C74.5811 75.3214 74.3936 75.2089 74.1686 75.1339C74.4686 75.6214 74.8061 76.0714 75.1061 76.5589C75.1436 76.3339 75.1811 76.1089 75.1811 75.8839C75.0686 75.9964 74.6186 76.2964 74.7686 76.3339C74.6561 76.2964 74.5436 76.1464 74.4311 76.0339C73.9811 75.6589 73.4936 75.3964 72.9311 75.2464C72.2186 75.0589 71.9186 76.1464 72.6311 76.3339C73.3436 76.5214 73.6811 77.0464 74.2811 77.3464C74.9561 77.6464 75.5186 77.1214 76.0061 76.6714C76.1936 76.5214 76.2311 76.1839 76.0811 75.9964C75.7811 75.5089 75.4436 75.0589 75.1436 74.5714C74.9936 74.3464 74.7686 74.2339 74.5061 74.3089C72.7811 74.7964 72.1436 76.0714 70.9811 77.2714C70.4936 77.7964 71.2811 78.5839 71.7686 78.0589Z" fill="black"/>
<path d="M25.1186 61.0715C24.8936 63.209 23.7686 65.384 22.3061 66.9215C22.1186 67.1465 22.0811 67.5215 22.3061 67.709C22.9811 68.2715 23.6936 68.5715 24.5936 68.6465C25.3061 68.7215 25.2311 67.5965 24.5186 67.5215C23.9561 67.484 23.7311 67.2965 22.9811 66.9215C22.9811 67.184 22.9811 67.4465 22.9811 67.709C24.8561 65.909 25.9061 63.509 26.2061 61.0715C26.2436 60.359 25.1936 60.359 25.1186 61.0715Z" fill="black"/>
<path d="M43.6811 60.9965C44.0186 60.959 44.2811 60.7715 44.2811 60.3965C44.2811 60.0965 44.0186 59.7964 43.6811 59.7964C43.0061 59.8714 42.9686 60.659 42.9311 61.184C42.9311 61.559 43.3061 61.784 43.6436 61.709C44.0561 61.634 44.4686 61.4839 44.7311 61.1089C44.9936 60.7339 44.9936 60.209 44.9936 59.759C44.9936 59.384 44.6186 59.1589 44.2811 59.2339C43.7936 59.3089 43.2686 59.5714 43.0436 60.059C42.8561 60.4715 42.8936 60.959 43.1561 61.334C43.4186 61.6715 43.8311 61.934 44.2811 61.784C44.8436 61.559 45.0686 60.959 45.1436 60.434C45.1811 60.059 44.9936 59.759 44.6186 59.7215C44.0561 59.684 43.1561 59.6465 42.8936 60.284C42.5561 61.034 43.2686 61.5589 43.8686 61.859C44.1311 61.9715 44.5061 61.934 44.6561 61.6714C44.8061 61.3339 44.8811 61.034 44.8436 60.659C44.8061 60.3965 44.6186 60.209 44.5061 60.0215C44.1686 59.384 43.1936 59.9465 43.5311 60.584C43.6061 60.6965 43.6436 60.7715 43.7186 60.884C43.7936 60.9965 43.7186 60.809 43.7561 60.959C43.7561 60.884 43.6811 61.0714 43.6811 61.1089C43.9436 61.0339 44.2061 60.9589 44.4686 60.9214C44.3186 60.8464 44.1686 60.7715 44.0186 60.659C44.0186 60.659 43.8686 60.509 43.9436 60.584C43.9061 60.509 43.9061 60.509 43.9436 60.584C43.9811 60.659 43.9436 60.734 43.9061 60.809C43.9061 60.8465 43.7561 60.9215 43.8686 60.8465C43.7936 60.884 44.0186 60.809 44.0186 60.809C44.2061 60.7715 44.4311 60.809 44.6186 60.8465C44.4311 60.6215 44.2436 60.359 44.0936 60.134C44.0561 60.3215 44.0186 60.4715 43.9811 60.659C44.0186 60.584 43.9436 60.734 43.9061 60.7715C43.9811 60.659 43.7936 60.8464 43.9436 60.7339C43.9061 60.7714 43.9811 60.734 44.0561 60.6965C43.9811 60.6965 44.0186 60.6965 44.1311 60.6965C44.0936 60.6965 44.0936 60.6964 44.1686 60.7339C44.0186 60.6589 44.2061 60.8089 44.1686 60.7339C44.0561 60.6214 44.2061 60.8089 44.1686 60.7339C44.1311 60.6964 44.0936 60.5839 44.1686 60.7339C44.1686 60.6964 44.1311 60.6215 44.1311 60.584C44.1686 60.734 44.1311 60.5839 44.1311 60.5464C44.1311 60.7339 44.2061 60.434 44.1311 60.6215C44.1311 60.584 44.2436 60.4714 44.1686 60.5464C44.2436 60.4339 44.1686 60.509 44.2436 60.4715C44.3561 60.3965 44.4686 60.3589 44.6561 60.3589C44.4311 60.1714 44.1686 59.984 43.9436 59.834C43.9436 60.0215 43.9436 60.209 43.9061 60.3965C43.9061 60.4715 43.8686 60.509 43.8311 60.584C43.9061 60.4715 43.8311 60.584 43.7936 60.584C43.9061 60.4715 43.6811 60.6215 43.7936 60.584C43.6436 60.6215 43.5311 60.659 43.3811 60.6965C43.6061 60.884 43.8686 61.0715 44.0936 61.2215C44.0936 61.0715 44.0936 60.9215 44.1311 60.7715C44.1311 60.734 44.2061 60.5839 44.1311 60.7339C44.1311 60.7339 44.1311 60.734 44.1311 60.6965C43.9811 60.959 43.7186 60.959 43.3436 60.7715C43.3061 60.6965 43.2311 60.6215 43.1936 60.509C43.1936 60.4715 43.1936 60.4339 43.1936 60.3589C43.2311 60.2464 43.2311 60.1715 43.2686 60.059C43.4186 59.984 43.5686 59.8714 43.7186 59.7964C42.9686 59.9464 42.9686 61.0715 43.6811 60.9965Z" fill="black"/>
<path d="M17.3186 56.1214C16.9436 56.4964 16.6811 56.9089 16.6811 57.4715C16.6811 57.6965 16.8686 57.9965 17.0936 57.9965C17.6186 58.0715 18.1061 58.109 18.5936 57.884C18.8936 57.734 19.1561 57.3964 19.1186 57.0589C19.0436 56.2339 18.1811 55.9339 17.4686 56.0464C17.0936 56.1214 16.6811 56.3464 16.4936 56.7214C16.3061 57.1339 16.4186 57.509 16.6811 57.884C17.0561 58.334 17.9561 58.6715 18.4811 58.334C18.7436 58.1465 18.8936 57.8465 18.8936 57.509C18.8936 57.4715 18.8936 57.3965 18.8936 57.359C18.8936 57.509 18.8936 57.3215 18.9311 57.2839C18.9686 57.2089 18.9686 57.134 19.0061 57.0215C19.1186 56.684 19.0061 56.3839 18.7061 56.1964C18.4436 56.0089 17.9936 56.0089 17.6936 55.9714C17.3561 55.9339 17.1686 56.2714 17.1311 56.5339C17.0561 57.0589 17.1311 57.659 17.6186 57.959C18.0311 58.2215 18.5186 58.034 18.8936 57.7715C19.2686 57.509 19.3811 57.0215 19.1936 56.609C18.9311 56.0839 18.1811 56.0089 17.6936 56.0089C16.9811 56.0089 16.9811 57.134 17.6936 57.134C17.8061 57.134 17.9186 57.134 18.0311 57.134C18.1811 57.134 17.9186 57.0965 18.0686 57.134C18.1061 57.134 18.1811 57.1715 18.2186 57.1715C18.2561 57.1715 18.3686 57.2465 18.2186 57.1715C18.2561 57.1715 18.2561 57.209 18.2936 57.209C18.3311 57.2465 18.4061 57.284 18.2561 57.1715C18.3686 57.2465 18.1811 57.059 18.2186 57.134C18.2186 57.0965 18.1811 57.0215 18.1811 56.984C18.1811 57.0215 18.1436 57.0964 18.1811 56.9089C18.1811 56.9464 18.1436 57.0589 18.2186 56.8714C18.1811 56.9089 18.1061 57.0214 18.2186 56.8714C18.1811 56.9089 18.1436 56.9465 18.1061 56.984C18.2561 56.8715 18.1436 56.9465 18.1061 56.984C18.0686 57.0215 17.9936 57.0215 18.1436 56.9465C18.1061 56.9465 18.1061 56.9465 18.0686 56.984C17.9561 57.0215 18.2186 56.984 18.0686 56.984C17.9936 56.984 18.2186 57.0215 18.1436 56.984C18.0311 56.9465 18.2561 57.059 18.1811 57.0215C18.1436 56.984 18.0686 56.9464 18.2186 57.0589C18.1811 57.0214 18.1436 56.9464 18.2561 57.0964C18.2561 57.0589 18.2186 57.059 18.2186 57.0215C18.1811 56.9465 18.2561 57.1715 18.2186 57.0215C18.2186 56.984 18.2186 56.9464 18.1811 56.9089C18.2186 57.0964 18.1811 56.9089 18.1811 56.8714C18.1811 56.7589 18.1811 56.6464 18.2186 56.5339C18.0311 56.7214 17.8436 56.9089 17.6561 57.0964C17.8061 57.0964 17.7686 57.0965 17.9186 57.134C17.9936 57.134 18.0686 57.1715 18.1436 57.1715C18.2561 57.209 18.0311 57.0965 18.1061 57.134C18.0686 57.0965 17.9561 56.9464 17.9186 56.8714C17.8811 56.7964 17.9561 56.5714 17.8811 56.7214C17.8436 56.8339 17.8061 56.9465 17.7686 57.0215C17.7311 57.134 17.7311 57.2465 17.7311 57.359C17.7311 57.3965 17.7311 57.6965 17.7311 57.4715C17.7311 57.509 17.6936 57.5839 17.7686 57.4339C17.7311 57.5089 17.8811 57.3215 17.8061 57.3965C17.7311 57.4715 17.9186 57.3215 17.8436 57.359C17.9936 57.284 17.9561 57.3215 17.8811 57.3215C17.7686 57.359 18.0311 57.3215 17.9186 57.3215C17.8811 57.3215 17.8811 57.3215 17.8436 57.3215C17.7311 57.3215 17.9936 57.359 17.8811 57.3215C17.8436 57.3215 17.8061 57.3215 17.7686 57.2839C17.7311 57.2839 17.6936 57.2464 17.6936 57.2464C17.5811 57.2089 17.8061 57.3214 17.7311 57.2464C17.6561 57.2089 17.6186 57.1715 17.5811 57.1715C17.5436 57.134 17.4686 57.0965 17.5811 57.1715C17.5436 57.1715 17.5436 57.1339 17.5061 57.0964C17.4686 57.0589 17.4686 57.059 17.4311 57.0215C17.3561 56.9465 17.5061 57.134 17.4311 57.0215C17.3561 56.909 17.4686 57.1715 17.4311 56.984C17.4686 57.134 17.4311 57.0965 17.4311 57.0215C17.4311 57.1715 17.4311 57.1339 17.4311 57.0589C17.3936 57.2089 17.3936 57.1339 17.4311 57.0964C17.3561 57.2464 17.3936 57.134 17.4311 57.134C17.3186 57.2465 17.3936 57.1715 17.4311 57.134C17.4686 57.134 17.6186 57.0214 17.5061 57.0964C17.5811 57.0589 17.6561 57.059 17.7311 57.0215C17.5436 57.059 17.7686 57.0215 17.8061 57.0215C17.9186 57.0215 17.6561 56.984 17.7686 57.0215C17.8061 57.0215 17.8436 57.0214 17.8436 57.0589C17.8811 57.0589 17.8811 57.0589 17.9186 57.0964C17.7311 57.0214 17.8811 57.0589 17.9186 57.0964C18.0686 57.1714 17.8436 57.0215 17.9561 57.134C18.0311 57.209 17.8811 57.0215 17.9561 57.134C17.9936 57.209 17.9186 56.9839 17.9186 57.0589C17.9186 57.0964 17.9186 57.1715 17.9186 56.984C17.9186 57.0215 17.8811 57.0964 17.9186 56.9089C17.9186 56.9839 17.9936 56.7589 17.9561 56.8714C18.0311 56.7214 18.0311 56.7965 17.9936 56.834C18.1061 56.7215 18.0686 56.759 18.0311 56.7965C17.9936 56.834 17.9186 56.834 18.0686 56.7965C18.0311 56.7965 17.9936 56.834 17.9561 56.834C17.9186 56.834 17.8811 56.8339 17.8436 56.8714C17.9936 56.8339 17.8436 56.8714 17.8061 56.8714C17.6936 56.8714 17.5436 56.8714 17.4311 56.8714C17.4686 56.8714 17.2436 56.8339 17.3186 56.8714C17.4686 57.0589 17.5811 57.2465 17.7311 57.3965C17.7311 57.359 17.7311 57.3214 17.7311 57.2464C17.7311 57.2839 17.7311 57.284 17.7311 57.209C17.7311 57.1715 17.7311 57.1339 17.7686 57.0964C17.7311 57.1714 17.7311 57.1714 17.7686 57.0964C17.7686 57.0589 17.8061 57.059 17.8061 57.0215C17.7686 57.059 17.7686 57.059 17.8061 57.0215C17.8811 56.9465 17.9561 56.8715 17.9936 56.7965C18.6311 56.4214 17.8436 55.6339 17.3186 56.1214Z" fill="black"/>
<path d="M27.331 80.1214C26.431 77.4964 22.1936 75.9589 19.8311 77.4214C19.2311 77.7964 19.7936 78.7714 20.3936 78.3964C22.1186 77.3464 25.6061 78.4714 26.2436 80.4214C26.4686 81.0964 27.556 80.7964 27.331 80.1214Z" fill="black"/>
<path d="M71.5061 112.934C76.0061 112.034 80.9561 113.046 85.3436 114.096C89.881 115.184 95.0935 116.684 98.656 119.834C99.181 120.321 100.006 119.534 99.4435 119.046C95.806 115.859 90.706 114.321 86.131 113.159C81.4436 111.959 76.0436 110.909 71.2061 111.884C70.5311 111.996 70.8311 113.084 71.5061 112.934Z" fill="black"/>
<path d="M81.7811 129.359C79.2311 132.059 77.5061 135.809 76.9436 139.446C76.8311 140.159 77.9186 140.459 78.0311 139.746C78.5561 136.259 80.1311 132.696 82.5686 130.146C83.0561 129.621 82.2686 128.834 81.7811 129.359Z" fill="black"/>
<path d="M64.8685 16.034C62.2435 20.609 58.0435 16.5965 55.1186 14.534C52.6811 12.7715 50.2435 12.659 47.3185 12.9965C43.4185 13.484 34.6061 15.8465 35.7311 21.434C36.8561 27.0215 43.9061 27.734 48.4811 27.3215C53.0936 26.909 59.9935 25.0715 61.906 20.2715C63.856 15.359 58.906 11.234 54.4435 10.6715C49.5685 10.0715 43.6436 12.209 42.5936 17.534C41.4686 23.1215 46.006 25.7465 50.7685 26.4215C53.4685 26.7965 56.1685 26.7965 58.906 26.9465C60.8935 27.059 63.706 27.059 65.206 28.5965C66.706 30.0965 65.206 33.209 63.8935 34.2965C62.1685 35.7965 59.431 35.4965 57.3686 34.9715C52.6436 33.809 47.2436 30.134 45.8561 25.259C45.1061 22.6715 46.306 20.3465 48.256 18.6965C50.731 16.559 54.4435 16.484 57.481 17.0465C61.531 17.759 71.356 22.109 67.5685 27.6965C65.806 30.3215 61.531 32.0465 58.456 32.0465C55.9435 32.0465 53.9935 30.359 52.531 28.484C49.7186 24.809 48.0685 19.784 43.756 17.459C41.4311 16.2215 38.9186 16.484 36.4436 17.0465C33.4436 17.7215 29.9936 18.9965 28.2311 21.6215C26.8061 23.684 27.9686 26.1215 29.5811 27.659C31.7561 29.759 34.9061 30.8465 37.7186 31.7465C43.3061 33.509 49.456 34.6715 55.1935 33.059C62.656 30.9965 68.3185 25.034 75.931 23.2715C76.306 23.1965 76.456 22.7465 76.2685 22.4465C74.131 18.734 68.9185 16.8215 65.0185 15.6965C61.3435 14.6465 55.6811 13.7465 52.8686 17.084C52.6436 17.3465 52.6436 17.6465 52.8686 17.8715C55.2686 20.5715 58.456 22.184 61.456 24.059C65.206 26.459 67.906 29.834 68.356 34.3715C68.731 38.3465 65.656 39.359 62.3185 38.684C58.4935 37.8965 54.7435 35.6465 52.2311 32.684C49.2686 29.159 50.0936 24.7715 53.6186 22.109C56.6186 19.859 60.706 18.9215 64.381 19.484C67.231 19.934 71.0935 21.2465 72.0685 24.284C72.5935 25.934 71.656 27.884 70.5685 29.084C69.406 30.359 67.4185 30.2465 65.881 29.984C62.9935 29.4965 60.256 28.184 57.556 27.1715C55.4561 26.384 53.0936 25.484 50.8061 25.8965C48.7061 26.2715 45.8936 27.584 45.9311 30.059C45.9686 32.309 48.556 33.9215 50.3185 34.784C55.1935 37.0715 61.4935 36.359 66.106 33.809C68.131 32.684 69.781 30.959 70.5685 28.7465C71.5435 26.084 70.456 23.1965 69.0685 20.909C68.8435 21.1715 68.656 21.4715 68.431 21.734C73.906 22.7465 81.706 31.2215 74.656 35.534C71.9185 37.184 68.656 34.8965 66.7435 33.059C64.756 31.184 63.031 28.634 62.3935 25.934C62.281 26.159 62.131 26.384 62.0185 26.609C72.7435 24.3215 73.081 47.459 83.5435 42.284C84.181 41.9465 83.6185 41.009 82.981 41.309C77.8435 43.859 74.956 36.509 72.9685 33.059C70.531 28.859 67.231 24.3215 61.756 25.484C61.456 25.559 61.306 25.8965 61.381 26.159C62.6185 31.409 69.5935 39.9215 75.631 36.2465C78.8935 34.259 79.2685 30.359 77.656 27.2465C76.006 24.059 72.3685 21.2465 68.8435 20.609C68.3935 20.534 67.9435 20.984 68.206 21.434C70.2685 24.7715 70.6435 28.4465 67.6435 31.334C65.0935 33.809 61.156 34.784 57.706 34.934C54.2185 35.084 49.6436 34.2215 47.5436 31.109C46.2311 29.1215 48.4436 27.8465 50.0561 27.2465C51.7811 26.609 53.356 26.909 55.081 27.3965C59.506 28.6715 68.0185 34.2215 71.881 29.309C73.531 27.209 73.981 24.359 72.331 22.1465C70.681 19.934 67.7185 18.884 65.131 18.3965C59.4685 17.2715 51.8185 19.709 49.6435 25.5215C47.0935 32.3465 55.5685 37.7465 60.9685 39.434C63.181 40.109 65.9935 40.484 67.9435 38.984C70.2685 37.184 69.6685 33.584 68.9185 31.184C66.5935 23.684 58.5685 22.2965 53.6935 17.009C53.6935 17.2715 53.6935 17.534 53.6935 17.7965C56.3185 14.6465 61.7935 15.884 65.1685 16.8215C68.6185 17.7965 73.4185 19.634 75.2935 22.934C75.406 22.6715 75.5185 22.3715 75.631 22.109C67.381 24.059 61.2685 30.6965 52.906 32.384C49.5311 33.059 46.0435 32.4965 42.7061 31.8215C39.3311 31.109 35.9186 30.134 32.8811 28.5215C30.2936 27.134 27.1436 24.3215 29.7686 21.3965C32.0561 18.8465 36.5561 17.759 39.8561 17.609C45.2936 17.3465 47.956 23.534 50.3935 27.3215C53.0185 31.409 56.4311 34.109 61.4935 32.6465C66.181 31.2965 71.8435 27.0965 68.3185 21.884C65.2435 17.3465 58.4185 15.209 53.206 15.6215C48.481 15.959 43.8686 19.634 44.5811 24.734C45.2561 29.459 50.056 33.059 54.0685 34.934C57.481 36.509 62.956 37.709 65.5435 34.0715C66.556 32.6465 67.3435 30.3215 66.556 28.634C65.806 26.984 63.931 26.4215 62.281 26.084C57.181 25.1465 51.4061 26.384 46.6061 24.0215C43.9811 22.7465 43.1561 19.859 43.8311 17.1215C44.5436 14.2715 47.356 12.584 50.0185 11.909C52.7935 11.1965 55.9061 11.609 58.306 13.1465C60.631 14.6465 61.9435 17.684 60.631 20.234C59.356 22.7465 56.3186 24.134 53.8061 24.9965C50.8061 26.009 47.5811 26.4215 44.4311 26.159C41.6561 25.934 38.6936 24.9965 37.2686 22.4465C35.4686 19.334 38.7311 16.934 41.2061 15.734C43.4186 14.684 45.9686 14.1215 48.4061 13.934C50.7685 13.7465 52.5685 14.0465 54.5185 15.434C58.081 17.909 62.731 21.884 65.806 16.559C66.181 15.959 65.206 15.3965 64.8685 16.034Z" fill="#444444"/>
<path d="M81.3685 16.0339C82.2311 15.5839 82.9436 15.8464 83.1686 16.8214C83.4686 18.0589 82.456 19.2964 81.5185 19.9339C80.9185 20.3464 81.481 21.3214 82.081 20.9089C83.5436 19.8589 84.6686 18.2089 84.1811 16.3339C83.7686 14.7214 82.081 14.3464 80.7685 15.0589C80.1685 15.3964 80.731 16.3714 81.3685 16.0339Z" fill="black"/>
<path d="M81.856 24.1715C81.856 23.909 81.856 23.684 81.856 23.4215C81.856 22.709 80.731 22.709 80.731 23.4215C80.731 23.684 80.731 23.909 80.731 24.1715C80.731 24.9215 81.856 24.9215 81.856 24.1715Z" fill="black"/>
<path d="M86.3561 18.3589C87.3685 18.3964 88.081 18.8089 87.8185 19.8964C87.556 20.9464 86.6186 21.7339 85.6811 22.1839C85.0061 22.4839 85.6061 23.4589 86.2436 23.1589C87.5935 22.5589 88.831 21.2464 88.981 19.7464C89.1685 18.0964 87.8185 17.3089 86.3561 17.2339C85.6061 17.2339 85.6061 18.3589 86.3561 18.3589Z" fill="black"/>
<path d="M83.7311 27.1715C83.7311 26.909 83.7311 26.684 83.7311 26.4215C83.7311 25.709 82.6061 25.709 82.6061 26.4215C82.6061 26.684 82.6061 26.909 82.6061 27.1715C82.6061 27.9215 83.7311 27.9215 83.7311 27.1715Z" fill="black"/>
<path d="M30.3311 117.059C20.7311 120.359 10.4561 120.959 1.4936 126.096C0.856097 126.471 1.4186 127.446 2.0561 127.071C10.9061 121.971 21.1061 121.409 30.5936 118.146C31.3436 117.884 31.0436 116.796 30.3311 117.059Z" fill="black"/>
<path d="M4.19357 12.209C7.00607 14.684 9.55608 17.834 13.6061 17.984C14.3186 18.0215 14.3186 16.8965 13.6061 16.859C9.96858 16.709 7.56857 13.634 5.01857 11.384C4.45608 10.934 3.66857 11.7215 4.19357 12.209Z" fill="black"/>
</svg>
