<svg width="230" height="225" viewBox="0 0 230 225" fill="none" xmlns="http://www.w3.org/2000/svg">
<path d="M228.145 95.2162L208.005 108.304L174.508 123.816L194.648 110.659L228.145 95.2162Z" fill="#888A8D"/>
<path d="M91.5267 109.689L71.3178 122.846L45.1568 70.1483L65.2966 57.0605L91.5267 109.689Z" fill="#8A8B8E"/>
<path d="M122.117 95.5624L101.908 108.72L71.3178 122.846L91.5267 109.689L122.117 95.5624Z" fill="#888A8D"/>
<path d="M194.648 110.658L174.508 123.816L35.1908 188.147L55.3305 174.99L194.648 110.658Z" fill="#888A8D"/>
<path d="M55.3305 174.99L35.1216 188.147C26.4013 179.145 18.9267 168.55 12.9748 156.709C12.2827 155.254 11.6598 154.077 11.1061 152.831C10.8293 152.207 10.5525 151.584 10.2756 150.961C-1.21304 124.647 -2.80484 96.9474 4.18525 72.7105C8.47619 57.7529 16.0892 44.1111 26.5397 33.0314C31.3843 27.9762 36.7826 23.4059 42.8037 19.4587L63.0127 6.30157C56.9915 10.1795 51.5933 14.7498 46.7486 19.8742C36.2289 30.9539 28.6852 44.5958 24.3942 59.5534C17.4041 83.7902 18.9959 111.489 30.4846 137.804C30.7614 138.427 31.0382 139.05 31.3151 139.673C31.8688 140.851 32.4224 142.097 33.1837 143.551C39.1357 155.393 46.6794 165.988 55.3305 174.99Z" fill="#8C8E90"/>
<path d="M74.5014 0L91.3883 34.0008L120.733 92.8617L122.048 95.5624L91.5268 109.689L65.3658 57.0605C62.2514 62.0463 59.7599 67.6554 57.9605 73.7492C53.1851 90.2996 54.7077 107.958 61.1441 123.746C61.4209 124.37 61.6286 124.993 61.9054 125.616C62.4591 126.863 63.0127 128.109 63.5664 129.286L216.587 58.9302C222.47 70.8408 226.346 83.0285 228.214 95.2162L194.648 110.659L55.3306 174.99C46.6102 165.988 39.1357 155.393 33.1837 143.551C32.4916 142.097 31.8688 140.92 31.3151 139.673C31.0383 139.05 30.7614 138.427 30.4846 137.804C18.9959 111.489 17.4041 83.7902 24.3942 59.5534C28.6852 44.5958 36.2981 30.9539 46.7487 19.8742C54.5 11.7029 63.8432 4.91662 74.5014 0Z" fill="#E4E4E5"/>
<path d="M166.065 164.811L145.856 177.968C157.829 170.143 167.172 157.955 171.671 142.443C172.778 138.565 173.539 134.688 174.024 130.74L194.233 117.583C193.748 121.53 192.987 125.408 191.88 129.286C187.381 144.798 178.107 156.985 166.065 164.811Z" fill="#8C8E90"/>
<path d="M123.57 174.09L103.361 187.178L93.7414 167.788L113.881 154.631L123.57 174.09Z" fill="#8A8B8E"/>
<path d="M105.299 169.104L105.438 169.173C105.507 169.173 105.576 169.242 105.645 169.242L105.299 169.104Z" fill="#E4E4E5"/>
<path d="M105.645 169.242L85.5056 182.4L85.0903 182.261L105.299 169.104L105.645 169.242Z" fill="#898A8D"/>
<path d="M186.758 196.111L166.549 209.268C162.95 211.622 159.075 213.769 155.06 215.569C144.264 220.555 132.983 223.256 121.633 223.948C107.237 224.779 92.5649 222.425 78.7231 217.162C77.685 216.747 76.5776 216.331 75.5395 215.916C74.5706 215.5 73.5325 215.085 72.5635 214.6C60.798 209.337 49.6554 201.928 39.8278 192.718L60.0367 179.56C69.8644 188.77 81.007 196.18 92.7725 201.443C93.7414 201.858 94.7796 202.343 95.7485 202.759C96.7866 203.174 97.894 203.659 98.9321 204.005C112.843 209.268 127.446 211.692 141.842 210.791C153.261 210.099 164.473 207.398 175.269 202.412C179.284 200.543 183.09 198.465 186.758 196.111Z" fill="#8C8E90"/>
<path d="M228.975 101.518C233.197 144.313 213.265 184.892 175.269 202.412C164.473 207.398 153.192 210.099 141.842 210.791C127.446 211.622 112.774 209.268 98.9321 204.005C97.894 203.59 96.7866 203.174 95.7485 202.759C94.7796 202.343 93.7414 201.928 92.7725 201.443C81.007 196.18 69.8644 188.77 60.0367 179.56L94.6411 163.633C98.0324 165.711 101.631 167.58 105.369 169.104C111.805 171.735 117.757 173.328 123.709 174.09L114.02 154.7L144.61 140.574L158.728 168.965C174.3 161.764 186.62 147.914 192.018 129.286C193.125 125.408 193.887 121.53 194.371 117.583L228.975 101.518Z" fill="#E4E4E5"/>
</svg>
