<svg width="472" height="472" viewBox="0 0 472 472" fill="none" xmlns="http://www.w3.org/2000/svg">
<path d="M457.732 314.668H371.591H13.5124C4.72934 290.022 0 263.349 0 236.001C0 235.664 0 235.664 0 235.326C0 232.625 0 229.586 0 226.885C0 225.535 -3.09324e-05 224.184 0.337779 222.496C3.71588 162.736 29.0516 108.716 68.9132 69.2135C93.5733 44.5667 123.638 25.322 157.082 13.5051C181.742 4.72678 208.091 0 235.791 0V79.0048V216.081V222.496H157.082V99.9376C145.258 106.69 134.448 115.131 124.314 124.922C97.2892 151.932 82.0878 186.708 79.0475 222.159C79.0475 223.509 78.7096 224.86 78.7096 226.548C78.7096 229.249 78.3718 232.287 78.3718 234.988C78.3718 235.326 78.3718 235.326 78.3718 235.664H471.245C471.245 263.687 466.515 290.022 457.732 314.668Z" fill="white"/>
<path d="M235.791 471.327C208.091 471.327 181.742 466.6 157.082 457.822C126.003 446.68 97.9648 429.461 74.3181 407.516C72.6291 405.828 70.6022 404.139 68.9131 402.451C67.2241 400.763 65.5351 399.075 64.1838 397.387C44.9287 377.129 29.3894 353.495 18.5795 327.498H107.423C112.153 334.588 117.896 341.003 123.976 347.418L124.652 348.093C134.448 357.885 145.258 365.988 156.744 372.74V327.498H235.453V393.673C275.653 393.673 315.514 378.142 346.255 347.756C352.673 341.341 358.078 334.588 363.145 327.836H452.327C417.195 411.905 333.418 471.327 235.791 471.327Z" fill="white"/>
<path d="M124.652 347.756L123.976 347.081C123.976 347.081 124.314 347.081 124.314 347.418C124.652 347.756 124.652 347.756 124.652 347.756Z" fill="white"/>
</svg>
