<svg width="63" height="63" viewBox="0 0 63 63" fill="none" xmlns="http://www.w3.org/2000/svg">
<path d="M60.7736 41.8453H49.3365H1.79405C0.627919 38.5678 0 35.0208 0 31.384C0 31.3391 0 31.3391 0 31.2942C0 30.935 0 30.5309 0 30.1717C0 29.9921 2.73684e-06 29.8126 0.0448541 29.5881C0.493367 21.641 3.85722 14.4573 9.14967 9.20418C12.4238 5.92659 16.4156 3.36738 20.8559 1.79594C24.13 0.628578 27.6284 0 31.3062 0V10.5062V28.735V29.5881H20.8559V13.2899C19.2861 14.1879 17.8508 15.3104 16.5053 16.6124C12.9172 20.2043 10.8989 24.8288 10.4952 29.5432C10.4952 29.7228 10.4504 29.9024 10.4504 30.1269C10.4504 30.486 10.4055 30.8901 10.4055 31.2493C10.4055 31.2942 10.4055 31.2942 10.4055 31.3391H62.5676C62.5676 35.0208 61.9397 38.5678 60.7736 41.8453Z" fill="black"/>
<path d="M31.2614 62.6782C27.5836 62.6782 24.0852 62.0496 20.811 60.8823C16.6847 59.4006 12.962 57.1108 9.82244 54.1924C9.59818 53.9679 9.32907 53.7434 9.10481 53.5189C8.88056 53.2944 8.6563 53.0699 8.4769 52.8455C5.92037 50.1515 3.85721 47.0087 2.42197 43.5515H14.2179C14.8458 44.4944 15.6083 45.3474 16.4156 46.2005L16.5053 46.2903C17.806 47.5923 19.2412 48.6699 20.7662 49.5679V43.5515H31.2165V52.3516C36.5538 52.3516 41.8463 50.2862 45.9278 46.2454C46.7799 45.3923 47.4976 44.4944 48.1703 43.5964H60.0111C55.3465 54.7761 44.2234 62.6782 31.2614 62.6782Z" fill="black"/>
<path d="M16.5501 46.2454L16.4604 46.1556C16.4604 46.1556 16.5053 46.1556 16.5053 46.2005C16.5053 46.2005 16.5501 46.2454 16.5501 46.2454Z" fill="black"/>
</svg>
